<svg width="168" height="130" viewBox="0 0 168 130" fill="none" xmlns="http://www.w3.org/2000/svg">
<g clip-path="url(#clip0_381_2364)">
<path d="M138.593 39.9922C139.007 38.3723 139.218 36.6815 139.218 34.94C139.218 23.7017 130.142 14.5896 118.948 14.5896C116.034 14.5896 113.271 15.2072 110.76 16.3209C102.803 6.36838 90.5802 0 76.8752 0C55.4958 0 37.7165 15.5109 34.0962 35.9322C33.5617 35.9019 33.0171 35.8917 32.4826 35.8917C14.5421 35.8917 0 50.4914 0 68.5031C0 85.9478 13.6445 100.193 30.8086 101.074C33.4306 117.476 47.5894 130.01 64.6728 130.01C76.9861 130.01 87.7868 123.49 93.8376 113.699C98.1538 116.798 103.438 118.63 109.146 118.63C120.643 118.63 130.415 111.229 133.995 100.912C135.164 101.054 136.354 101.125 137.565 101.125C154.376 101.125 168.01 87.4361 168.01 70.5584C168 54.0148 154.93 40.5491 138.593 39.9922Z" fill="#EAECEC"/>
<path d="M131.816 29.1086C131.816 24.1678 129.981 19.6725 126.966 16.2402C134.176 19.3586 139.218 26.5572 139.218 34.9404C139.218 35.072 139.229 37.3298 138.593 39.9926C138.593 39.9926 132.623 39.8407 130.112 40.6304C131.494 35.6592 131.816 30.7792 131.816 29.1086Z" fill="#B3B8BA"/>
<path d="M168 70.5487C168 87.4264 154.366 101.115 137.555 101.115C136.344 101.115 135.154 101.044 133.985 100.902C130.405 111.219 120.633 118.62 109.136 118.62C103.428 118.62 98.1438 116.798 93.8276 113.69C87.7768 123.48 76.9761 130 64.6628 130C47.5895 130 33.4307 117.466 30.7986 101.064C13.9875 100.214 0.53458 86.4949 0.0202637 69.516C3.51963 82.1616 14.7741 91.5674 28.3077 92.2559C30.8087 107.919 44.3322 119.876 60.639 119.876C72.3977 119.876 82.7143 113.649 88.4827 104.304C92.5972 107.261 97.6496 109.012 103.095 109.012C114.067 109.012 123.396 101.945 126.814 92.0939C127.934 92.2255 129.063 92.2964 130.223 92.2964C146.278 92.2964 159.297 79.2255 159.297 63.1071C159.297 55.5643 156.443 48.6897 151.764 43.5059C161.425 48.6289 168 58.8143 168 70.5487Z" fill="#B3B8BA"/>
</g>
<defs>
<clipPath id="clip0_381_2364">
<rect width="168" height="130" fill="white"/>
</clipPath>
</defs>
</svg>
