<svg width="661" height="130" viewBox="0 0 661 130" fill="none" xmlns="http://www.w3.org/2000/svg">
<path d="M150.668 59.6667V60.1667H150.885L151.033 60.0081L150.668 59.6667ZM164.377 45V44.5H164.16L164.012 44.6586L164.377 45ZM198.651 45L199.016 44.6586L198.868 44.5H198.651V45ZM212.36 59.6667L211.995 60.0081L212.143 60.1667H212.36V59.6667ZM257.333 59.6667C257.333 61.1394 258.527 62.3333 260 62.3333C261.473 62.3333 262.667 61.1394 262.667 59.6667C262.667 58.1939 261.473 57 260 57C258.527 57 257.333 58.1939 257.333 59.6667ZM257.333 45C257.333 46.4728 258.527 47.6667 260 47.6667C261.473 47.6667 262.667 46.4728 262.667 45C262.667 43.5272 261.473 42.3333 260 42.3333C258.527 42.3333 257.333 43.5272 257.333 45ZM148.001 45C148.001 46.4728 149.195 47.6667 150.668 47.6667C152.141 47.6667 153.335 46.4728 153.335 45C153.335 43.5272 152.141 42.3333 150.668 42.3333C149.195 42.3333 148.001 43.5272 148.001 45ZM150.668 74.3333L151.033 73.9919L150.885 73.8333H150.668V74.3333ZM164.377 89L164.012 89.3414L164.16 89.5H164.377V89ZM212.36 74.3333V73.8333H212.143L211.995 73.9919L212.36 74.3333ZM257.333 74.3333C257.333 75.8061 258.527 77 260 77C261.473 77 262.667 75.8061 262.667 74.3333C262.667 72.8606 261.473 71.6667 260 71.6667C258.527 71.6667 257.333 72.8606 257.333 74.3333ZM148.001 89C148.001 90.4728 149.195 91.6667 150.668 91.6667C152.141 91.6667 153.335 90.4728 153.335 89C153.335 87.5272 152.141 86.3333 150.668 86.3333C149.195 86.3333 148.001 87.5272 148.001 89ZM257.333 89C257.333 90.4728 258.527 91.6667 260 91.6667C261.473 91.6667 262.667 90.4728 262.667 89C262.667 87.5272 261.473 86.3333 260 86.3333C258.527 86.3333 257.333 87.5272 257.333 89ZM102 60.1667H150.668V59.1667H102V60.1667ZM151.033 60.0081L164.743 45.3414L164.012 44.6586L150.303 59.3252L151.033 60.0081ZM198.285 45.3414L211.995 60.0081L212.725 59.3252L199.016 44.6586L198.285 45.3414ZM212.36 60.1667H260V59.1667H212.36V60.1667ZM164.377 45.5H181.514V44.5H164.377V45.5ZM181.514 45.5H198.651V44.5H181.514V45.5ZM181.514 45.5H260V44.5H181.514V45.5ZM102 45.5H150.668V44.5H102V45.5ZM102 74.8333H150.668V73.8333H102V74.8333ZM150.303 74.6748L164.012 89.3414L164.743 88.6586L151.033 73.9919L150.303 74.6748ZM164.377 89.5H198.651V88.5H164.377V89.5ZM199.016 89.3414L212.725 74.6748L211.995 73.9919L198.285 88.6586L199.016 89.3414ZM212.36 74.8333H260V73.8333H212.36V74.8333ZM102 89.5H150.668V88.5H102V89.5ZM198.651 89.5H212.36V88.5H198.651V89.5ZM212.36 89.5H260V88.5H212.36V89.5Z" fill="black"/>
<path d="M395 57V84H647.928V57H395Z" fill="#E8E8E8" stroke="#E3E3E3" stroke-width="2"/>
<path fill-rule="evenodd" clip-rule="evenodd" d="M631.183 60.4962H598.327C597.363 60.4962 596.592 61.7193 596.592 63.2481C596.592 64.7769 597.363 66 598.327 66H631.183C632.146 66 632.917 64.7769 632.917 63.2481C632.917 61.7193 632.146 60.4962 631.183 60.4962Z" fill="white"/>
<path fill-rule="evenodd" clip-rule="evenodd" d="M581.268 60.4962H592.654C593.619 60.4962 594.391 61.7193 594.391 63.2481C594.391 64.7769 593.619 66 592.654 66H581.268C580.303 66 579.531 64.7769 579.531 63.2481C579.531 61.7193 580.303 60.4962 581.268 60.4962Z" fill="white"/>
<path fill-rule="evenodd" clip-rule="evenodd" d="M660.241 92.7147V48.4855C660.241 45.982 658.26 44 655.758 44H647.312C644.809 44 642.828 45.982 642.828 48.4855V92.7147C642.828 95.2182 644.809 97.2002 647.312 97.2002H655.758C658.156 97.2002 660.241 95.2182 660.241 92.7147Z" fill="#747F81"/>
<path fill-rule="evenodd" clip-rule="evenodd" d="M658.469 92.7148C658.469 94.2795 657.217 95.5312 655.653 95.5312H647.208C645.644 95.5312 644.392 94.2795 644.392 92.7148V48.4856C644.392 46.9209 645.644 45.6691 647.208 45.6691H655.653C657.217 45.6691 658.469 46.9209 658.469 48.4856V92.7148Z" fill="#455456"/>
<path fill-rule="evenodd" clip-rule="evenodd" d="M656.905 82.805V60.6904C656.905 59.6472 656.279 58.8127 655.445 58.8127H650.961C650.127 58.8127 649.502 59.6472 649.502 60.6904V82.805C649.502 83.8481 650.127 84.6826 650.961 84.6826H655.445C656.279 84.6826 656.905 83.8481 656.905 82.805Z" fill="#747F81"/>
<path fill-rule="evenodd" clip-rule="evenodd" d="M647.625 49.8415V94.2793C647.625 94.6966 647.729 95.1138 647.833 95.4268H647.208C645.644 95.4268 644.392 94.175 644.392 92.6103V48.1725C644.392 46.6078 645.644 45.356 647.208 45.356H655.653C656.8 45.356 657.739 45.9819 658.156 46.9207H650.336C648.876 47.1293 647.625 48.3811 647.625 49.8415Z" fill="#455456"/>
<path fill-rule="evenodd" clip-rule="evenodd" d="M656.905 88.3335V92.4017C656.905 93.1319 656.279 93.7578 655.549 93.7578H650.857C650.127 93.7578 649.502 93.1319 649.502 92.4017V88.3335C649.502 87.6033 650.127 86.9774 650.857 86.9774H655.549C656.279 86.8731 656.905 87.499 656.905 88.3335Z" fill="#747F81"/>
<path fill-rule="evenodd" clip-rule="evenodd" d="M655.758 90.1066V91.88C655.758 92.1929 655.445 92.5059 655.132 92.5059H653.047C652.734 92.5059 652.421 92.1929 652.421 91.88V90.0023C652.421 89.6894 652.734 89.3764 653.047 89.3764H655.132C655.549 89.4808 655.758 89.6894 655.758 90.1066Z" fill="#919898"/>
<path fill-rule="evenodd" clip-rule="evenodd" d="M655.758 75.6081V82.8058C655.758 83.223 655.445 83.4316 655.132 83.4316H653.151C652.734 83.4316 652.525 83.1187 652.525 82.8058V75.6081C652.525 75.1908 652.838 74.9822 653.151 74.9822H655.132C655.445 74.8779 655.758 75.1908 655.758 75.6081Z" fill="#24FF00"/>
<path fill-rule="evenodd" clip-rule="evenodd" d="M655.758 71.4349V73.3126C655.758 73.6255 655.445 73.9385 655.132 73.9385H653.047C652.734 73.9385 652.421 73.6255 652.421 73.3126V71.4349C652.421 71.122 652.734 70.8091 653.047 70.8091H655.132C655.549 70.8091 655.758 71.122 655.758 71.4349Z" fill="#24FF00"/>
<g clip-path="url(#clip0_0_1)">
<path d="M379.593 39.9922C380.007 38.3723 380.218 36.6815 380.218 34.94C380.218 23.7017 371.142 14.5896 359.948 14.5896C357.034 14.5896 354.271 15.2072 351.76 16.3209C343.803 6.36838 331.58 0 317.875 0C296.496 0 278.717 15.5109 275.096 35.9322C274.562 35.9019 274.017 35.8917 273.483 35.8917C255.542 35.8917 241 50.4914 241 68.5031C241 85.9478 254.645 100.193 271.809 101.074C274.431 117.476 288.589 130.01 305.673 130.01C317.986 130.01 328.787 123.49 334.838 113.699C339.154 116.798 344.438 118.63 350.146 118.63C361.643 118.63 371.415 111.229 374.995 100.912C376.164 101.054 377.354 101.125 378.565 101.125C395.376 101.125 409.01 87.4361 409.01 70.5584C409 54.0148 395.93 40.5491 379.593 39.9922Z" fill="#EAECEC"/>
<path d="M372.816 29.1086C372.816 24.1678 370.981 19.6725 367.966 16.2402C375.176 19.3586 380.218 26.5572 380.218 34.9404C380.218 35.072 380.229 37.3298 379.593 39.9926C379.593 39.9926 373.623 39.8407 371.112 40.6304C372.494 35.6592 372.816 30.7792 372.816 29.1086Z" fill="#B3B8BA"/>
<path d="M409 70.5487C409 87.4264 395.366 101.115 378.555 101.115C377.344 101.115 376.154 101.044 374.985 100.902C371.405 111.219 361.633 118.62 350.136 118.62C344.428 118.62 339.144 116.798 334.828 113.69C328.777 123.48 317.976 130 305.663 130C288.59 130 274.431 117.466 271.799 101.064C254.988 100.214 241.535 86.4949 241.02 69.516C244.52 82.1616 255.774 91.5674 269.308 92.2559C271.809 107.919 285.332 119.876 301.639 119.876C313.398 119.876 323.714 113.649 329.483 104.304C333.597 107.261 338.65 109.012 344.095 109.012C355.067 109.012 364.396 101.945 367.814 92.0939C368.934 92.2255 370.063 92.2964 371.223 92.2964C387.278 92.2964 400.297 79.2255 400.297 63.1071C400.297 55.5643 397.443 48.6897 392.764 43.5059C402.425 48.6289 409 58.8143 409 70.5487Z" fill="#B3B8BA"/>
</g>
<rect x="2" y="18" width="100" height="100" rx="1" fill="#2F2F2F"/>
<g filter="url(#filter0_d_0_1)">
<mask id="mask0_0_1" style="mask-type:alpha" maskUnits="userSpaceOnUse" x="10" y="26" width="84" height="84">
<rect x="10" y="26" width="84" height="84" fill="white"/>
</mask>
<g mask="url(#mask0_0_1)">
<path d="M41.5 78.5V57.5H62.5V78.5H41.5ZM41.5 99.5V92.5H34.5C32.575 92.5 30.9271 91.8146 29.5563 90.4438C28.1854 89.0729 27.5 87.425 27.5 85.5V78.5H20.5V71.5H27.5V64.5H20.5V57.5H27.5V50.5C27.5 48.575 28.1854 46.9271 29.5563 45.5563C30.9271 44.1854 32.575 43.5 34.5 43.5H41.5V36.5H48.5V43.5H55.5V36.5H62.5V43.5H69.5C71.425 43.5 73.0729 44.1854 74.4438 45.5563C75.8146 46.9271 76.5 48.575 76.5 50.5V57.5H83.5V64.5H76.5V71.5H83.5V78.5H76.5V85.5C76.5 87.425 75.8146 89.0729 74.4438 90.4438C73.0729 91.8146 71.425 92.5 69.5 92.5H62.5V99.5H55.5V92.5H48.5V99.5H41.5ZM69.5 85.5V50.5H34.5V85.5H69.5Z" fill="white"/>
</g>
</g>
<defs>
<filter id="filter0_d_0_1" x="-18" y="-3" width="140" height="140" filterUnits="userSpaceOnUse" color-interpolation-filters="sRGB">
<feFlood flood-opacity="0" result="BackgroundImageFix"/>
<feColorMatrix in="SourceAlpha" type="matrix" values="0 0 0 0 0 0 0 0 0 0 0 0 0 0 0 0 0 0 127 0" result="hardAlpha"/>
<feOffset dy="-1"/>
<feGaussianBlur stdDeviation="10"/>
<feComposite in2="hardAlpha" operator="out"/>
<feColorMatrix type="matrix" values="0 0 0 0 0 0 0 0 0 0 0 0 0 0 0 0 0 0 0.1 0"/>
<feBlend mode="normal" in2="BackgroundImageFix" result="effect1_dropShadow_0_1"/>
<feBlend mode="normal" in="SourceGraphic" in2="effect1_dropShadow_0_1" result="shape"/>
</filter>
<clipPath id="clip0_0_1">
<rect width="168" height="130" fill="white" transform="translate(241)"/>
</clipPath>
</defs>
</svg>
