<svg width="324" height="276" viewBox="0 0 324 276" fill="none" xmlns="http://www.w3.org/2000/svg">
<g filter="url(#filter0_d_507_769)">
<path d="M103.37 96H220.289C220.73 96 221.167 96.0867 221.574 96.2552C221.982 96.4236 222.352 96.6706 222.664 96.9818C222.976 97.2931 223.224 97.6626 223.393 98.0693C223.561 98.476 223.648 98.9119 223.648 99.3521V166.205C223.648 168.967 221.41 171.205 218.648 171.205H105C102.239 171.205 100 168.967 100 166.205V99.3521C100 98.9111 100.087 98.4743 100.257 98.0669C100.426 97.6596 100.675 97.2896 100.988 96.9782C101.301 96.6667 101.672 96.42 102.081 96.2522C102.49 96.0843 102.928 95.9987 103.37 96Z" fill="white"/>
<path d="M103.181 96H221.046C221.736 96 222.399 96.2738 222.887 96.7612C223.376 97.2485 223.65 97.9095 223.65 98.5988V102.248H100.002V99.1621C100.002 98.746 100.084 98.3339 100.244 97.9496C100.404 97.5653 100.638 97.2163 100.934 96.9225C101.229 96.6287 101.58 96.396 101.965 96.2377C102.351 96.0794 102.764 95.9987 103.181 96Z" fill="#EBEBEB"/>
<path d="M104.828 99.258C104.828 99.4296 104.777 99.5973 104.681 99.7399C104.585 99.8826 104.45 99.9938 104.291 100.059C104.132 100.125 103.957 100.142 103.789 100.109C103.62 100.075 103.465 99.9927 103.343 99.8714C103.222 99.7501 103.139 99.5955 103.106 99.4273C103.072 99.259 103.089 99.0846 103.155 98.9261C103.221 98.7676 103.332 98.6321 103.475 98.5368C103.618 98.4415 103.786 98.3906 103.958 98.3906C104.189 98.3906 104.41 98.482 104.573 98.6447C104.736 98.8074 104.828 99.028 104.828 99.258Z" fill="#E0E0E0"/>
<path d="M107.404 99.258C107.404 99.4297 107.353 99.5976 107.257 99.7403C107.162 99.883 107.026 99.9942 106.867 100.06C106.708 100.125 106.533 100.142 106.364 100.109C106.195 100.075 106.04 99.9918 105.919 99.8702C105.797 99.7485 105.715 99.5936 105.682 99.4251C105.648 99.2567 105.666 99.0821 105.733 98.9237C105.799 98.7653 105.911 98.63 106.054 98.5351C106.198 98.4402 106.366 98.3899 106.538 98.3906C106.652 98.3906 106.765 98.4131 106.87 98.4567C106.976 98.5004 107.071 98.5643 107.152 98.6449C107.232 98.7255 107.296 98.8211 107.339 98.9264C107.382 99.0316 107.405 99.1443 107.404 99.258Z" fill="#E0E0E0"/>
<path d="M109.867 99.258C109.867 99.4296 109.816 99.5973 109.72 99.7399C109.625 99.8826 109.489 99.9938 109.33 100.059C109.171 100.125 108.996 100.142 108.828 100.109C108.659 100.075 108.504 99.9927 108.382 99.8714C108.261 99.7501 108.178 99.5955 108.145 99.4273C108.111 99.259 108.128 99.0846 108.194 98.9261C108.26 98.7676 108.371 98.6321 108.514 98.5368C108.657 98.4415 108.825 98.3906 108.997 98.3906C109.228 98.3906 109.449 98.482 109.612 98.6447C109.775 98.8074 109.867 99.028 109.867 99.258Z" fill="#E0E0E0"/>
<path d="M139.846 144.842L105.366 144.942L105.435 168.559L134.016 168.48L137.892 168.466L139.915 168.462L139.846 144.842Z" fill="#F5F5F5"/>
<path d="M108.017 166.02C107.976 166.02 107.931 162.014 107.917 157.073C107.903 152.131 107.917 148.122 107.965 148.122C108.014 148.122 108.052 152.127 108.066 157.073C108.08 162.018 108.059 166.02 108.017 166.02Z" fill="#263238"/>
<path d="M137.933 163.476C137.933 163.517 131.21 163.572 122.915 163.593C114.62 163.614 107.897 163.593 107.897 163.562C107.897 163.531 114.62 163.469 122.915 163.445C131.21 163.42 137.933 163.434 137.933 163.476Z" fill="#EBEBEB"/>
<path d="M137.924 160.837C137.924 160.878 131.198 160.934 122.906 160.958C114.614 160.982 107.888 160.958 107.888 160.923C107.888 160.889 114.611 160.83 122.906 160.806C131.201 160.782 137.924 160.806 137.924 160.837Z" fill="#EBEBEB"/>
<path d="M137.918 158.228C137.918 158.27 131.192 158.322 122.9 158.346C114.609 158.37 107.883 158.346 107.879 158.315C107.876 158.284 114.602 158.218 122.9 158.194C131.199 158.169 137.918 158.187 137.918 158.228Z" fill="#EBEBEB"/>
<path d="M137.907 155.598C137.907 155.64 131.185 155.692 122.893 155.716C114.601 155.74 107.871 155.716 107.871 155.685C107.871 155.654 114.594 155.588 122.889 155.564C131.185 155.54 137.907 155.557 137.907 155.598Z" fill="#EBEBEB"/>
<path d="M137.901 152.972C137.901 153.013 131.178 153.065 122.883 153.089C114.588 153.113 107.865 153.089 107.865 153.058C107.865 153.027 114.588 152.965 122.883 152.941C131.178 152.916 137.901 152.93 137.901 152.972Z" fill="#EBEBEB"/>
<path d="M137.893 150.345C137.893 150.386 131.17 150.438 122.875 150.462C114.58 150.486 107.857 150.462 107.857 150.431C107.857 150.4 114.58 150.338 122.875 150.314C131.17 150.289 137.893 150.303 137.893 150.345Z" fill="#EBEBEB"/>
<path d="M137.886 147.708C137.886 147.75 131.16 147.805 122.868 147.829C114.577 147.853 107.85 147.829 107.85 147.795C107.85 147.76 114.573 147.701 122.868 147.677C131.163 147.653 137.886 147.681 137.886 147.708Z" fill="#EBEBEB"/>
<path d="M112.068 161.931L109.914 161.937L109.925 166.028L112.08 166.022L112.068 161.931Z" fill="#455456"/>
<path d="M127.712 161.886L125.557 161.892L125.569 165.983L127.723 165.977L127.712 161.886Z" fill="#455456"/>
<path d="M116.301 158.895L114.147 158.901L114.168 166.003L116.322 165.997L116.301 158.895Z" fill="#455456"/>
<path d="M124.168 157.04L122.014 157.046L122.039 165.993L124.194 165.987L124.168 157.04Z" fill="#455456"/>
<path d="M120.277 151.599L118.123 151.605L118.166 165.992L120.32 165.986L120.277 151.599Z" fill="#455456"/>
<path d="M131.545 154.528H129.391V166.254H131.545V154.528Z" fill="#455456"/>
<path d="M134.472 165.949C134.472 165.991 128.56 166.043 121.272 166.063C113.985 166.084 108.069 166.063 108.069 166.025C108.069 165.987 113.978 165.936 121.272 165.915C128.567 165.894 134.472 165.908 134.472 165.949Z" fill="#263238"/>
<path d="M105.053 107.849V142.538H160.861H165.755H180.254V107.849H105.053Z" fill="#F5F5F5"/>
<path d="M110.343 131.808V132.903H110.228V131.908H109.972V131.808H110.343Z" fill="#263238"/>
<path d="M110.604 132.357C110.604 132.012 110.788 131.801 111.041 131.801C111.293 131.801 111.481 132.008 111.481 132.357C111.481 132.706 111.297 132.914 111.041 132.914C110.784 132.914 110.604 132.706 110.604 132.357ZM111.366 132.357C111.366 132.063 111.235 131.904 111.041 131.904C110.847 131.904 110.719 132.063 110.719 132.357C110.719 132.651 110.85 132.81 111.041 132.81C111.231 132.81 111.366 132.651 111.366 132.357Z" fill="#263238"/>
<path d="M110.788 125.996V126.096H110.022V126.016L110.48 125.57C110.604 125.45 110.628 125.373 110.628 125.301C110.628 125.173 110.538 125.094 110.369 125.094C110.313 125.091 110.257 125.1 110.205 125.122C110.154 125.143 110.108 125.176 110.071 125.218L109.991 125.149C110.04 125.095 110.1 125.054 110.167 125.026C110.234 124.999 110.307 124.986 110.379 124.99C110.601 124.99 110.743 125.104 110.743 125.287C110.741 125.355 110.724 125.421 110.693 125.481C110.661 125.54 110.617 125.592 110.563 125.633L110.189 125.999L110.788 125.996Z" fill="#263238"/>
<path d="M110.922 125.549C110.922 125.204 111.106 124.989 111.359 124.989C111.612 124.989 111.799 125.2 111.799 125.549C111.799 125.898 111.615 126.105 111.359 126.105C111.102 126.105 110.922 125.895 110.922 125.549ZM111.684 125.549C111.684 125.255 111.553 125.093 111.359 125.093C111.165 125.093 111.037 125.255 111.037 125.549C111.037 125.843 111.168 126.002 111.359 126.002C111.549 126.002 111.684 125.839 111.684 125.549Z" fill="#263238"/>
<path d="M110.765 118.969C110.765 119.152 110.63 119.294 110.367 119.294C110.222 119.299 110.08 119.248 109.972 119.152L110.027 119.066C110.122 119.151 110.246 119.196 110.374 119.19C110.554 119.19 110.654 119.107 110.654 118.969C110.654 118.831 110.564 118.755 110.36 118.755H110.28V118.679L110.585 118.298H110.024V118.198H110.717V118.278L110.405 118.665C110.647 118.679 110.765 118.796 110.765 118.969Z" fill="#263238"/>
<path d="M110.922 118.736C110.922 118.39 111.106 118.18 111.359 118.18C111.611 118.18 111.798 118.387 111.798 118.736C111.798 119.085 111.615 119.292 111.359 119.292C111.102 119.292 110.922 119.085 110.922 118.736ZM111.684 118.736C111.684 118.442 111.552 118.283 111.359 118.283C111.165 118.283 111.036 118.442 111.036 118.736C111.036 119.03 111.168 119.189 111.359 119.189C111.549 119.189 111.684 119.023 111.684 118.736Z" fill="#263238"/>
<path d="M115.186 135.955C115.186 135.61 115.37 135.396 115.623 135.396C115.876 135.396 116.063 135.606 116.063 135.955C116.063 136.304 115.879 136.512 115.623 136.512C115.366 136.512 115.186 136.301 115.186 135.955ZM115.948 135.955C115.948 135.662 115.817 135.499 115.623 135.499C115.429 135.499 115.301 135.662 115.301 135.955C115.301 136.249 115.432 136.408 115.623 136.408C115.813 136.408 115.948 136.239 115.948 135.955Z" fill="#263238"/>
<path d="M123.312 135.401V136.497H123.184V135.502H122.924V135.401H123.312Z" fill="#263238"/>
<path d="M131.875 136.396V136.496H131.106V136.417L131.559 135.971C131.684 135.85 131.708 135.774 131.708 135.701C131.708 135.573 131.618 135.494 131.452 135.494C131.396 135.491 131.339 135.501 131.287 135.522C131.235 135.544 131.189 135.577 131.151 135.618L131.071 135.549C131.12 135.496 131.18 135.454 131.247 135.427C131.314 135.4 131.387 135.387 131.459 135.39C131.684 135.39 131.823 135.504 131.823 135.687C131.821 135.755 131.804 135.821 131.772 135.881C131.741 135.941 131.697 135.993 131.643 136.033L131.272 136.399L131.875 136.396Z" fill="#263238"/>
<path d="M139.969 136.182C139.969 136.366 139.834 136.507 139.57 136.507C139.425 136.512 139.284 136.462 139.175 136.366L139.231 136.276C139.277 136.319 139.331 136.353 139.391 136.375C139.45 136.397 139.514 136.407 139.577 136.404C139.761 136.404 139.858 136.317 139.858 136.182C139.858 136.048 139.768 135.965 139.563 135.965H139.463V135.882L139.768 135.502H139.22V135.401H139.913V135.481L139.601 135.871C139.851 135.885 139.969 136.006 139.969 136.182Z" fill="#263238"/>
<path d="M148.291 136.21H148.073V136.497H147.959V136.21H147.342V136.127L147.924 135.401H148.049L147.488 136.11H147.962V135.854H148.073V136.11H148.291V136.21Z" fill="#263238"/>
<path d="M156.223 136.176C156.223 136.363 156.091 136.522 155.825 136.522C155.68 136.526 155.539 136.476 155.43 136.38L155.485 136.29C155.532 136.334 155.586 136.367 155.646 136.389C155.705 136.411 155.768 136.421 155.832 136.418C156.015 136.418 156.116 136.328 156.116 136.194C156.116 136.059 156.029 135.965 155.749 135.965H155.513L155.572 135.416H156.171V135.516H155.669L155.631 135.862H155.773C156.088 135.851 156.223 135.983 156.223 136.176Z" fill="#263238"/>
<path d="M164.422 136.167C164.422 136.214 164.412 136.262 164.393 136.306C164.374 136.349 164.346 136.389 164.311 136.421C164.276 136.454 164.234 136.479 164.189 136.494C164.143 136.51 164.095 136.516 164.048 136.512C163.753 136.512 163.597 136.308 163.597 135.963C163.597 135.617 163.802 135.396 164.1 135.396C164.19 135.392 164.28 135.413 164.359 135.458L164.314 135.548C164.249 135.51 164.175 135.492 164.1 135.496C163.864 135.496 163.712 135.648 163.712 135.945C163.71 135.975 163.71 136.005 163.712 136.035C163.743 135.972 163.793 135.92 163.855 135.886C163.917 135.852 163.988 135.838 164.058 135.845C164.149 135.841 164.238 135.872 164.306 135.932C164.374 135.992 164.415 136.076 164.422 136.167ZM164.311 136.167C164.311 136.025 164.204 135.932 164.034 135.932C163.999 135.928 163.964 135.931 163.931 135.941C163.898 135.951 163.867 135.968 163.841 135.99C163.814 136.012 163.792 136.04 163.777 136.071C163.761 136.102 163.752 136.136 163.75 136.17C163.75 136.291 163.85 136.405 164.041 136.405C164.074 136.409 164.108 136.406 164.14 136.396C164.173 136.386 164.202 136.369 164.228 136.347C164.253 136.325 164.274 136.298 164.288 136.267C164.302 136.237 164.31 136.204 164.311 136.17V136.167Z" fill="#263238"/>
<path d="M172.488 135.401V135.481L172.02 136.497H171.899L172.352 135.502H171.788V135.705H171.674V135.401H172.488Z" fill="#263238"/>
<path d="M172.546 132.408C172.546 132.467 159.842 132.515 144.173 132.515C128.504 132.515 115.799 132.467 115.799 132.408C115.799 132.349 128.5 132.301 144.173 132.301C159.845 132.301 172.546 132.349 172.546 132.408Z" fill="#263238"/>
<path d="M172.546 125.564C172.546 125.623 159.842 125.668 144.173 125.668C128.504 125.668 115.8 125.623 115.8 125.564C115.8 125.505 128.5 125.457 144.173 125.457C159.845 125.457 172.546 125.505 172.546 125.564Z" fill="#263238"/>
<path d="M172.546 118.719C172.546 118.778 159.842 118.827 144.173 118.827C128.504 118.827 115.8 118.778 115.8 118.719C115.8 118.661 128.5 118.612 144.173 118.612C159.845 118.612 172.546 118.678 172.546 118.719Z" fill="#263238"/>
<path d="M115.799 132.307C115.799 132.38 115.778 132.451 115.738 132.512C115.698 132.573 115.641 132.62 115.574 132.648C115.507 132.676 115.433 132.684 115.361 132.67C115.29 132.656 115.224 132.621 115.173 132.57C115.121 132.518 115.086 132.453 115.072 132.381C115.058 132.31 115.066 132.236 115.094 132.169C115.122 132.102 115.17 132.045 115.23 132.005C115.291 131.965 115.363 131.944 115.435 131.945C115.484 131.942 115.532 131.95 115.577 131.967C115.623 131.985 115.664 132.011 115.698 132.045C115.732 132.08 115.759 132.121 115.776 132.166C115.794 132.211 115.801 132.259 115.799 132.307Z" fill="#2F2F2F"/>
<path d="M123.955 132.307C123.955 132.379 123.934 132.449 123.894 132.509C123.854 132.568 123.798 132.615 123.731 132.642C123.665 132.67 123.592 132.677 123.521 132.663C123.451 132.649 123.386 132.614 123.335 132.564C123.284 132.513 123.25 132.448 123.236 132.378C123.222 132.308 123.229 132.235 123.256 132.169C123.284 132.102 123.33 132.046 123.39 132.006C123.45 131.966 123.52 131.945 123.592 131.945C123.64 131.942 123.689 131.95 123.734 131.967C123.779 131.985 123.82 132.011 123.855 132.045C123.889 132.08 123.915 132.121 123.933 132.166C123.95 132.211 123.958 132.259 123.955 132.307Z" fill="#2F2F2F"/>
<path d="M132.115 132.307C132.115 132.379 132.093 132.449 132.053 132.509C132.013 132.568 131.957 132.615 131.89 132.642C131.824 132.67 131.751 132.677 131.68 132.663C131.61 132.649 131.545 132.614 131.494 132.564C131.444 132.513 131.409 132.448 131.395 132.378C131.381 132.308 131.388 132.235 131.416 132.169C131.443 132.102 131.49 132.046 131.549 132.006C131.609 131.966 131.679 131.945 131.751 131.945C131.8 131.942 131.848 131.95 131.893 131.967C131.938 131.985 131.979 132.011 132.014 132.045C132.048 132.08 132.075 132.121 132.092 132.166C132.109 132.211 132.117 132.259 132.115 132.307Z" fill="#2F2F2F"/>
<path d="M140.277 132.307C140.277 132.38 140.256 132.451 140.216 132.512C140.176 132.573 140.119 132.62 140.052 132.648C139.985 132.676 139.911 132.684 139.839 132.67C139.768 132.656 139.702 132.621 139.651 132.57C139.599 132.518 139.564 132.453 139.55 132.381C139.536 132.31 139.544 132.236 139.572 132.169C139.6 132.102 139.648 132.045 139.708 132.005C139.769 131.965 139.841 131.944 139.913 131.945C139.962 131.942 140.01 131.95 140.055 131.967C140.101 131.985 140.142 132.011 140.176 132.045C140.21 132.08 140.237 132.121 140.254 132.166C140.272 132.211 140.279 132.259 140.277 132.307Z" fill="#2F2F2F"/>
<path d="M148.432 132.307C148.428 132.374 148.405 132.439 148.365 132.494C148.325 132.548 148.27 132.59 148.206 132.613C148.143 132.637 148.074 132.641 148.008 132.626C147.942 132.611 147.882 132.577 147.835 132.528C147.789 132.479 147.757 132.417 147.745 132.351C147.733 132.284 147.741 132.216 147.768 132.154C147.795 132.092 147.839 132.039 147.895 132.002C147.952 131.964 148.018 131.944 148.086 131.944C148.133 131.944 148.179 131.954 148.222 131.972C148.265 131.991 148.304 132.018 148.337 132.051C148.369 132.085 148.394 132.126 148.41 132.169C148.427 132.213 148.434 132.26 148.432 132.307Z" fill="#2F2F2F"/>
<path d="M164.746 132.307C164.746 132.379 164.725 132.451 164.685 132.511C164.646 132.572 164.588 132.619 164.522 132.647C164.455 132.676 164.381 132.683 164.309 132.67C164.238 132.656 164.172 132.621 164.121 132.57C164.069 132.519 164.034 132.454 164.019 132.383C164.005 132.312 164.012 132.238 164.04 132.171C164.067 132.104 164.114 132.047 164.175 132.006C164.235 131.966 164.306 131.944 164.379 131.944C164.427 131.944 164.474 131.953 164.519 131.971C164.563 131.989 164.604 132.016 164.638 132.049C164.672 132.083 164.699 132.123 164.718 132.167C164.736 132.212 164.746 132.259 164.746 132.307Z" fill="#2F2F2F"/>
<path d="M156.592 132.307C156.592 132.38 156.57 132.45 156.529 132.51C156.488 132.57 156.43 132.617 156.363 132.644C156.296 132.67 156.222 132.676 156.151 132.661C156.08 132.646 156.015 132.609 155.965 132.557C155.915 132.504 155.882 132.438 155.87 132.367C155.858 132.295 155.868 132.222 155.898 132.156C155.928 132.09 155.977 132.035 156.039 131.997C156.101 131.96 156.173 131.941 156.246 131.945C156.293 131.945 156.339 131.954 156.382 131.973C156.425 131.991 156.464 132.018 156.497 132.052C156.529 132.086 156.554 132.126 156.57 132.17C156.587 132.214 156.594 132.26 156.592 132.307Z" fill="#2F2F2F"/>
<path d="M172.911 132.307C172.911 132.379 172.889 132.449 172.849 132.509C172.809 132.568 172.753 132.615 172.686 132.642C172.62 132.67 172.547 132.677 172.476 132.663C172.406 132.649 172.341 132.614 172.29 132.564C172.239 132.513 172.205 132.448 172.191 132.378C172.177 132.308 172.184 132.235 172.211 132.169C172.239 132.102 172.286 132.046 172.345 132.006C172.405 131.966 172.475 131.945 172.547 131.945C172.596 131.942 172.644 131.95 172.689 131.967C172.734 131.985 172.775 132.011 172.81 132.045C172.844 132.08 172.871 132.121 172.888 132.166C172.905 132.211 172.913 132.259 172.911 132.307Z" fill="#2F2F2F"/>
<path d="M119.515 132.406C119.515 132.453 119.501 132.499 119.475 132.539C119.448 132.578 119.411 132.608 119.368 132.626C119.324 132.644 119.276 132.649 119.23 132.64C119.183 132.631 119.141 132.608 119.107 132.575C119.074 132.541 119.051 132.499 119.042 132.453C119.033 132.406 119.037 132.359 119.056 132.315C119.074 132.271 119.104 132.234 119.144 132.208C119.183 132.182 119.229 132.168 119.276 132.168C119.339 132.168 119.4 132.193 119.445 132.238C119.49 132.282 119.515 132.343 119.515 132.406Z" fill="#E0E0E0"/>
<path d="M127.707 132.406C127.707 132.453 127.693 132.499 127.667 132.539C127.64 132.578 127.603 132.608 127.56 132.626C127.516 132.644 127.468 132.649 127.422 132.64C127.375 132.631 127.333 132.608 127.299 132.575C127.266 132.541 127.243 132.499 127.234 132.453C127.225 132.406 127.229 132.359 127.248 132.315C127.266 132.271 127.296 132.234 127.335 132.208C127.375 132.182 127.421 132.168 127.468 132.168C127.531 132.168 127.592 132.193 127.637 132.238C127.682 132.282 127.707 132.343 127.707 132.406Z" fill="#E0E0E0"/>
<path d="M135.896 132.406C135.893 132.453 135.877 132.497 135.849 132.534C135.822 132.572 135.784 132.6 135.74 132.616C135.696 132.632 135.649 132.635 135.604 132.625C135.559 132.614 135.517 132.591 135.485 132.557C135.453 132.524 135.431 132.482 135.423 132.436C135.414 132.391 135.419 132.344 135.437 132.301C135.455 132.258 135.485 132.221 135.523 132.195C135.562 132.169 135.607 132.155 135.654 132.154C135.686 132.154 135.719 132.16 135.749 132.173C135.78 132.185 135.807 132.204 135.83 132.228C135.853 132.251 135.87 132.279 135.882 132.31C135.893 132.341 135.898 132.374 135.896 132.406Z" fill="#E0E0E0"/>
<path d="M144.087 132.406C144.087 132.453 144.073 132.499 144.047 132.539C144.021 132.578 143.983 132.608 143.94 132.626C143.896 132.644 143.848 132.649 143.802 132.64C143.755 132.631 143.713 132.608 143.679 132.575C143.646 132.541 143.623 132.499 143.614 132.453C143.605 132.406 143.61 132.359 143.628 132.315C143.646 132.271 143.676 132.234 143.716 132.208C143.755 132.182 143.801 132.168 143.848 132.168C143.912 132.168 143.972 132.193 144.017 132.238C144.062 132.282 144.087 132.343 144.087 132.406Z" fill="#E0E0E0"/>
<path d="M152.277 132.406C152.277 132.453 152.263 132.499 152.236 132.539C152.21 132.578 152.173 132.608 152.129 132.626C152.086 132.644 152.038 132.649 151.991 132.64C151.945 132.631 151.902 132.608 151.869 132.575C151.836 132.541 151.813 132.499 151.804 132.453C151.795 132.406 151.799 132.359 151.817 132.315C151.835 132.271 151.866 132.234 151.905 132.208C151.945 132.182 151.991 132.168 152.038 132.168C152.101 132.168 152.162 132.193 152.207 132.238C152.252 132.282 152.277 132.343 152.277 132.406Z" fill="#E0E0E0"/>
<path d="M160.465 132.407C160.462 132.454 160.445 132.499 160.416 132.537C160.388 132.574 160.348 132.603 160.304 132.618C160.259 132.633 160.211 132.635 160.165 132.623C160.119 132.611 160.078 132.585 160.047 132.55C160.016 132.514 159.996 132.47 159.99 132.423C159.983 132.376 159.991 132.329 160.012 132.287C160.034 132.244 160.067 132.209 160.108 132.186C160.149 132.162 160.196 132.152 160.243 132.155C160.306 132.159 160.364 132.188 160.406 132.235C160.447 132.283 160.468 132.344 160.465 132.407Z" fill="#E0E0E0"/>
<path d="M168.653 132.406C168.653 132.453 168.639 132.499 168.613 132.539C168.587 132.578 168.55 132.608 168.506 132.626C168.462 132.644 168.414 132.649 168.368 132.64C168.322 132.631 168.279 132.608 168.246 132.575C168.212 132.541 168.19 132.499 168.181 132.453C168.171 132.406 168.176 132.359 168.194 132.315C168.212 132.271 168.243 132.234 168.282 132.208C168.321 132.182 168.368 132.168 168.415 132.168C168.478 132.168 168.539 132.193 168.584 132.238C168.628 132.282 168.653 132.343 168.653 132.406Z" fill="#E0E0E0"/>
<path d="M124.488 129.39C124.488 129.566 124.435 129.738 124.337 129.885C124.239 130.032 124.099 130.146 123.936 130.213C123.773 130.281 123.593 130.299 123.42 130.264C123.246 130.23 123.087 130.145 122.962 130.02C122.837 129.895 122.752 129.737 122.717 129.564C122.683 129.391 122.701 129.211 122.768 129.048C122.836 128.886 122.951 128.746 123.097 128.648C123.244 128.55 123.417 128.498 123.594 128.498C123.711 128.498 123.827 128.521 123.936 128.566C124.044 128.611 124.143 128.676 124.226 128.759C124.309 128.842 124.375 128.94 124.419 129.048C124.464 129.157 124.488 129.273 124.488 129.39Z" fill="#2F2F2F"/>
<path d="M131.607 125.191C131.607 125.369 131.555 125.542 131.457 125.69C131.359 125.837 131.219 125.953 131.055 126.021C130.891 126.089 130.711 126.107 130.537 126.073C130.362 126.039 130.202 125.954 130.076 125.829C129.951 125.704 129.865 125.544 129.83 125.371C129.795 125.197 129.813 125.017 129.88 124.853C129.948 124.689 130.063 124.549 130.211 124.451C130.358 124.352 130.532 124.3 130.71 124.3C130.947 124.3 131.175 124.394 131.343 124.561C131.511 124.728 131.606 124.955 131.607 125.191Z" fill="#2F2F2F"/>
<path d="M140.439 125.564C140.439 125.741 140.386 125.913 140.288 126.06C140.19 126.206 140.051 126.321 139.887 126.388C139.724 126.456 139.544 126.473 139.371 126.439C139.198 126.405 139.038 126.32 138.913 126.195C138.788 126.07 138.703 125.911 138.669 125.738C138.634 125.565 138.652 125.386 138.72 125.223C138.787 125.06 138.902 124.921 139.049 124.823C139.196 124.725 139.369 124.673 139.545 124.673C139.782 124.673 140.01 124.767 140.177 124.934C140.345 125.101 140.439 125.328 140.439 125.564Z" fill="#2F2F2F"/>
<path d="M149.067 117.945C149.067 118.122 149.014 118.294 148.916 118.441C148.818 118.587 148.678 118.702 148.515 118.769C148.352 118.837 148.172 118.854 147.999 118.82C147.825 118.785 147.666 118.7 147.541 118.576C147.416 118.451 147.331 118.292 147.297 118.119C147.262 117.946 147.28 117.767 147.348 117.604C147.415 117.441 147.53 117.302 147.677 117.204C147.824 117.106 147.996 117.054 148.173 117.054C148.41 117.055 148.637 117.149 148.804 117.316C148.971 117.483 149.066 117.709 149.067 117.945Z" fill="#2F2F2F"/>
<path d="M157.128 122.79C157.128 122.966 157.075 123.139 156.977 123.285C156.879 123.432 156.739 123.546 156.576 123.614C156.413 123.681 156.233 123.699 156.06 123.664C155.886 123.63 155.727 123.545 155.602 123.42C155.477 123.296 155.392 123.137 155.358 122.964C155.323 122.791 155.341 122.612 155.409 122.449C155.476 122.286 155.591 122.147 155.738 122.049C155.885 121.951 156.057 121.898 156.234 121.898C156.352 121.898 156.468 121.921 156.576 121.966C156.685 122.011 156.783 122.077 156.866 122.16C156.949 122.242 157.015 122.341 157.06 122.449C157.105 122.557 157.128 122.673 157.128 122.79Z" fill="#2F2F2F"/>
<path d="M165.28 124.079C165.28 124.255 165.228 124.428 165.13 124.574C165.031 124.721 164.892 124.835 164.729 124.903C164.565 124.97 164.386 124.988 164.212 124.954C164.039 124.919 163.88 124.834 163.755 124.71C163.63 124.585 163.545 124.426 163.51 124.253C163.476 124.08 163.493 123.901 163.561 123.738C163.629 123.575 163.743 123.436 163.89 123.338C164.037 123.24 164.21 123.188 164.387 123.188C164.504 123.187 164.621 123.21 164.729 123.254C164.838 123.299 164.936 123.365 165.02 123.448C165.103 123.531 165.168 123.629 165.213 123.737C165.258 123.846 165.281 123.962 165.28 124.079Z" fill="#2F2F2F"/>
<path d="M172.91 129.392C172.841 129.397 172.771 129.397 172.702 129.392C172.497 129.379 172.294 129.351 172.093 129.309C171.31 129.163 170.578 128.817 169.969 128.304C169.537 127.925 169.184 127.464 168.93 126.949C168.624 126.352 168.259 125.787 167.839 125.263C167.376 124.65 166.73 124.201 165.993 123.981C165.59 123.887 165.17 123.902 164.774 124.022C164.358 124.159 163.973 124.376 163.642 124.661C162.949 125.242 162.436 126.064 161.761 126.814C161.423 127.213 161.005 127.536 160.535 127.765C160.028 127.986 159.461 128.033 158.924 127.896C158.652 127.806 158.401 127.66 158.19 127.466C157.978 127.273 157.811 127.036 157.698 126.773C157.464 126.252 157.286 125.707 157.168 125.149C157.058 124.584 156.896 124.031 156.683 123.497C156.581 123.239 156.397 123.02 156.16 122.875C155.904 122.752 155.62 122.696 155.336 122.712C154.732 122.778 154.132 122.885 153.542 123.03C153.231 123.094 152.914 123.13 152.596 123.137C152.265 123.149 151.936 123.085 151.633 122.951C151.328 122.807 151.066 122.587 150.872 122.311C150.685 122.041 150.528 121.751 150.404 121.447C150.144 120.843 149.971 120.214 149.739 119.605C149.625 119.303 149.48 119.014 149.306 118.742C149.138 118.482 148.897 118.278 148.613 118.154C148.537 118.133 148.464 118.106 148.388 118.088L148.153 118.064C148.002 118.055 147.851 118.086 147.716 118.154C147.441 118.322 147.216 118.56 147.065 118.845C146.736 119.436 146.481 120.065 146.307 120.718C146.113 121.375 145.96 122.045 145.79 122.723C145.531 123.846 145.295 124.965 145.008 126.061C144.868 126.608 144.7 127.148 144.506 127.678C144.327 128.221 144.038 128.721 143.657 129.147C143.445 129.363 143.156 129.487 142.853 129.493C142.56 129.486 142.274 129.4 142.026 129.244C141.562 128.94 141.167 128.542 140.869 128.076C140.302 127.185 139.837 126.233 139.483 125.238C139.092 124.298 138.649 123.369 137.921 122.73C137.567 122.421 137.143 122.202 136.686 122.092C136.23 121.981 135.753 121.982 135.296 122.094C134.855 122.21 134.434 122.394 134.049 122.64C133.665 122.873 133.301 123.137 132.958 123.428C132.299 123.981 131.691 124.592 131.14 125.252C130.31 126.075 129.408 126.822 128.445 127.485C127.585 128.091 126.654 128.592 125.674 128.978C124.82 129.332 123.896 129.486 122.973 129.427C122.203 129.338 121.447 129.155 120.721 128.884C119.715 128.513 118.738 128.067 117.798 127.55C117.473 127.374 117.23 127.232 117.067 127.132C116.905 127.032 116.828 126.977 116.828 126.977L117.081 127.111L117.822 127.505C118.768 128.003 119.747 128.434 120.753 128.794C121.471 129.056 122.219 129.228 122.98 129.309C123.885 129.36 124.791 129.203 125.626 128.85C126.588 128.463 127.501 127.963 128.345 127.36C129.296 126.699 130.186 125.954 131.005 125.135C131.559 124.461 132.174 123.839 132.84 123.276C133.18 122.984 133.541 122.718 133.921 122.481C134.322 122.225 134.76 122.031 135.22 121.907C135.706 121.787 136.215 121.785 136.702 121.902C137.189 122.02 137.64 122.252 138.018 122.581C138.791 123.255 139.241 124.216 139.639 125.159C139.996 126.139 140.461 127.077 141.025 127.955C141.307 128.396 141.68 128.773 142.119 129.061C142.335 129.197 142.584 129.274 142.84 129.282C143.089 129.271 143.325 129.164 143.498 128.985C143.851 128.58 144.122 128.111 144.294 127.602C144.485 127.079 144.649 126.546 144.786 126.006C145.074 124.917 145.306 123.797 145.569 122.671C145.728 121.98 145.891 121.316 146.088 120.653C146.268 119.983 146.53 119.337 146.868 118.731C147.042 118.417 147.298 118.155 147.609 117.974C147.775 117.888 147.962 117.849 148.149 117.86L148.416 117.888C148.502 117.909 148.589 117.94 148.672 117.964C149.002 118.101 149.283 118.334 149.479 118.631C149.663 118.915 149.815 119.219 149.933 119.536C150.172 120.158 150.342 120.787 150.594 121.371C150.847 121.955 151.159 122.536 151.72 122.774C152.281 123.013 152.912 122.944 153.504 122.84C154.105 122.695 154.714 122.59 155.329 122.526C155.648 122.506 155.967 122.571 156.254 122.712C156.527 122.878 156.739 123.128 156.857 123.424C157.075 123.969 157.241 124.534 157.352 125.111C157.462 125.658 157.633 126.191 157.861 126.7C157.961 126.942 158.113 127.16 158.304 127.339C158.496 127.518 158.724 127.653 158.973 127.737C159.47 127.865 159.995 127.824 160.466 127.619C160.914 127.397 161.31 127.082 161.629 126.697C162.294 125.968 162.814 125.138 163.534 124.54C163.882 124.243 164.286 124.019 164.722 123.88C165.142 123.752 165.588 123.739 166.014 123.842C166.776 124.073 167.444 124.542 167.919 125.18C168.342 125.717 168.707 126.296 169.01 126.908C169.255 127.415 169.598 127.869 170.018 128.245C170.612 128.76 171.327 129.117 172.096 129.282C172.294 129.329 172.496 129.362 172.699 129.382C172.769 129.382 172.84 129.385 172.91 129.392Z" fill="#2F2F2F"/>
<path d="M124.569 114.031C124.569 114.09 121.404 114.138 117.497 114.138C113.59 114.138 110.421 114.09 110.421 114.031C110.421 113.972 113.59 113.924 117.497 113.924C121.404 113.924 124.569 113.972 124.569 114.031Z" fill="#263238"/>
<path d="M183.253 108.072V141.984H187.367H193.027H219.422V108.072H183.253Z" fill="#F5F5F5"/>
<path d="M201.177 111.916C198.97 111.916 196.812 112.569 194.977 113.793C193.142 115.016 191.711 116.755 190.867 118.79C190.022 120.824 189.801 123.063 190.232 125.223C190.662 127.383 191.725 129.367 193.286 130.924C194.847 132.481 196.835 133.542 199 133.971C201.164 134.401 203.408 134.18 205.447 133.338C207.487 132.495 209.229 131.068 210.456 129.237C211.682 127.406 212.336 125.253 212.336 123.051C212.336 120.098 211.161 117.265 209.068 115.177C206.975 113.089 204.136 111.916 201.177 111.916ZM201.347 129.724C199.99 129.724 198.664 129.324 197.536 128.572C196.407 127.821 195.528 126.752 195.008 125.502C194.489 124.252 194.352 122.876 194.617 121.549C194.881 120.221 195.534 119.001 196.493 118.044C197.452 117.087 198.674 116.435 200.004 116.171C201.334 115.906 202.713 116.042 203.967 116.559C205.22 117.077 206.291 117.954 207.045 119.079C207.799 120.205 208.201 121.528 208.201 122.881C208.202 123.781 208.026 124.671 207.682 125.503C207.338 126.334 206.834 127.09 206.197 127.726C205.561 128.363 204.805 128.868 203.972 129.214C203.14 129.559 202.248 129.737 201.347 129.738V129.724Z" fill="#2F2F2F"/>
<path d="M201.35 111.918C201.35 113.103 201.35 114.7 201.35 116.041C202.428 116.041 203.491 116.294 204.452 116.781C205.414 117.268 206.247 117.974 206.883 118.843C207.52 119.711 207.942 120.717 208.115 121.779C208.289 122.841 208.209 123.928 207.882 124.953L211.927 126.049C212.387 124.408 212.463 122.684 212.15 121.01C211.837 119.335 211.143 117.755 210.122 116.39C209.101 115.025 207.779 113.912 206.259 113.137C204.739 112.361 203.06 111.944 201.353 111.918H201.35Z" fill="#2F2F2F"/>
<path d="M194.487 122.88C194.487 121.558 194.871 120.265 195.593 119.156C196.314 118.048 197.343 117.172 198.553 116.635L196.822 112.789C194.805 113.645 193.085 115.074 191.877 116.899C190.669 118.724 190.027 120.863 190.03 123.049C190.03 123.205 190.03 123.36 190.03 123.516H194.532C194.501 123.309 194.487 123.094 194.487 122.88Z" fill="#2F2F2F"/>
<path d="M201.345 129.738C200.857 129.737 200.37 129.685 199.893 129.582C199.72 130.574 199.395 132.495 199.138 134.009C199.81 134.136 200.492 134.199 201.175 134.199C203.609 134.197 205.975 133.401 207.914 131.932C209.852 130.464 211.256 128.403 211.912 126.064L207.867 124.969C207.426 126.351 206.557 127.557 205.385 128.414C204.213 129.271 202.798 129.735 201.345 129.738Z" fill="#2F2F2F"/>
<g opacity="0.3">
<path d="M201.345 129.736C200.857 129.735 200.371 129.683 199.894 129.58C199.721 130.572 199.395 132.494 199.139 134.007C199.811 134.134 200.492 134.197 201.176 134.197C203.61 134.195 205.976 133.399 207.914 131.93C209.853 130.462 211.257 128.401 211.913 126.062L207.867 124.967C207.427 126.349 206.558 127.555 205.386 128.412C204.213 129.27 202.799 129.733 201.345 129.736Z" fill="#2F2F2F"/>
</g>
<path d="M199.863 123.434H199.451V123.966H198.88V123.434H197.512V123.04L198.707 121.437H199.323L198.215 122.957H198.908V122.48H199.462V122.954H199.874L199.863 123.434Z" fill="#263238"/>
<path d="M200.036 122.699C200.036 121.867 200.5 121.39 201.124 121.39C201.747 121.39 202.211 121.867 202.211 122.699C202.211 123.532 201.75 124.009 201.124 124.009C200.497 124.009 200.036 123.536 200.036 122.699ZM201.619 122.699C201.619 122.126 201.418 121.887 201.124 121.887C200.829 121.887 200.632 122.126 200.632 122.699C200.632 123.273 200.833 123.515 201.113 123.515C201.394 123.515 201.619 123.273 201.619 122.699Z" fill="#263238"/>
<path d="M202.453 122.107C202.465 121.986 202.512 121.871 202.588 121.776C202.665 121.681 202.767 121.61 202.882 121.572C202.998 121.534 203.122 121.53 203.24 121.561C203.358 121.592 203.465 121.656 203.547 121.746C203.629 121.836 203.683 121.948 203.703 122.068C203.722 122.188 203.707 122.311 203.658 122.422C203.609 122.533 203.528 122.628 203.426 122.695C203.325 122.762 203.205 122.798 203.084 122.798C202.995 122.799 202.908 122.78 202.827 122.745C202.746 122.71 202.674 122.658 202.614 122.592C202.555 122.527 202.51 122.45 202.482 122.367C202.454 122.283 202.444 122.195 202.453 122.107ZM203.347 122.107C203.347 121.834 203.243 121.703 203.084 121.703C202.924 121.703 202.817 121.837 202.817 122.107C202.817 122.377 202.928 122.508 203.084 122.508C203.239 122.508 203.347 122.377 203.347 122.107ZM204.594 121.437H205.023L203.291 123.966H202.862L204.594 121.437ZM204.178 123.299C204.189 123.177 204.236 123.061 204.313 122.965C204.389 122.868 204.492 122.797 204.609 122.758C204.726 122.719 204.851 122.715 204.97 122.746C205.089 122.778 205.196 122.843 205.279 122.934C205.362 123.025 205.416 123.138 205.435 123.259C205.454 123.38 205.438 123.504 205.388 123.616C205.337 123.728 205.255 123.823 205.152 123.89C205.049 123.956 204.928 123.991 204.805 123.99C204.717 123.99 204.63 123.972 204.549 123.936C204.469 123.901 204.397 123.849 204.338 123.783C204.279 123.718 204.234 123.642 204.207 123.558C204.179 123.475 204.169 123.387 204.178 123.299ZM205.068 123.299C205.068 123.03 204.964 122.898 204.805 122.898C204.646 122.898 204.538 123.026 204.538 123.299C204.538 123.572 204.649 123.7 204.805 123.7C204.961 123.7 205.068 123.565 205.068 123.299Z" fill="#263238"/>
<path d="M210.409 136.992C210.409 137.051 206.277 137.096 201.175 137.096C196.073 137.096 191.941 137.051 191.941 136.992C191.941 136.933 196.077 136.885 201.175 136.885C206.273 136.885 210.409 136.933 210.409 136.992Z" fill="#263238"/>
<path d="M206.308 138.683C206.308 138.742 204.015 138.79 201.186 138.79C198.356 138.79 196.063 138.742 196.063 138.683C196.063 138.624 198.356 138.579 201.186 138.579C204.015 138.579 206.308 138.627 206.308 138.683Z" fill="#263238"/>
<path d="M215.245 144.24H142.653V168.037H215.245V144.24Z" fill="#FAFAFA"/>
<path d="M209.123 149.871C209.123 149.912 196.785 149.947 181.57 149.947C166.355 149.947 154.018 149.912 154.018 149.871C154.018 149.829 166.351 149.795 181.57 149.795C196.789 149.795 209.123 149.829 209.123 149.871Z" fill="#EBEBEB"/>
<path d="M209.123 152.683C209.123 152.725 196.786 152.759 181.57 152.759C166.355 152.759 154.018 152.725 154.018 152.683C154.018 152.642 166.351 152.607 181.57 152.607C196.789 152.607 209.123 152.639 209.123 152.683Z" fill="#EBEBEB"/>
<path d="M209.123 155.504C209.123 155.546 196.785 155.58 181.57 155.58C166.355 155.58 154.018 155.546 154.018 155.504C154.018 155.463 166.351 155.425 181.57 155.425C196.789 155.425 209.123 155.459 209.123 155.504Z" fill="#EBEBEB"/>
<path d="M209.122 158.316C209.122 158.361 196.785 158.392 181.569 158.392C166.354 158.392 154.01 158.361 154.01 158.316C154.01 158.271 166.344 158.24 181.562 158.24C196.781 158.24 209.122 158.275 209.122 158.316Z" fill="#EBEBEB"/>
<path d="M209.122 161.135C209.122 161.176 196.785 161.211 181.569 161.211C166.354 161.211 154.01 161.186 154.01 161.135C154.01 161.083 166.344 161.059 181.562 161.059C196.781 161.059 209.122 161.093 209.122 161.135Z" fill="#EBEBEB"/>
<path d="M204.324 157.855C204.324 157.855 204.286 157.9 204.203 157.979C204.064 158.09 203.907 158.177 203.739 158.235C203.4 158.327 203.046 158.346 202.699 158.29C202.353 158.235 202.022 158.107 201.73 157.913C201.343 157.64 201.019 157.286 200.781 156.877C200.518 156.452 200.31 155.957 200.06 155.443C199.809 154.875 199.443 154.365 198.983 153.946C198.711 153.714 198.39 153.546 198.045 153.452C197.669 153.353 197.278 153.335 196.895 153.397C196.085 153.532 195.327 153.879 194.695 154.402C194.037 154.917 193.462 155.546 192.756 156.13C192.008 156.775 191.077 157.171 190.092 157.26C189.562 157.297 189.034 157.177 188.572 156.915C188.141 156.647 187.777 156.284 187.509 155.854C186.961 155.038 186.684 154.084 185.971 153.338C185.621 152.94 185.154 152.66 184.637 152.54C184.368 152.488 184.091 152.49 183.822 152.546C183.553 152.602 183.298 152.71 183.072 152.865C182.629 153.165 182.271 153.575 182.033 154.053C181.813 154.527 181.649 155.024 181.544 155.536C181.434 156.063 181.273 156.578 181.063 157.074C180.823 157.604 180.444 158.061 179.965 158.394C179.462 158.75 178.89 158.998 178.285 159.12C177.675 159.252 177.045 159.26 176.432 159.14C175.845 159.023 175.288 158.788 174.794 158.449C174.309 158.138 173.873 157.792 173.408 157.481C172.961 157.158 172.455 156.923 171.919 156.79C171.383 156.671 170.822 156.734 170.326 156.97C169.865 157.2 169.46 157.526 169.138 157.927C168.836 158.311 168.566 158.719 168.331 159.147C168.099 159.569 167.833 159.973 167.538 160.353C167.227 160.743 166.838 161.063 166.395 161.293C165.938 161.539 165.418 161.643 164.902 161.594C164.413 161.535 163.957 161.315 163.607 160.968C163.293 160.666 163.049 160.299 162.89 159.894C162.75 159.52 162.641 159.135 162.564 158.743C162.405 157.989 162.249 157.253 161.799 156.669C161.596 156.37 161.334 156.115 161.03 155.919C160.726 155.723 160.386 155.59 160.029 155.529C159.679 155.483 159.322 155.521 158.99 155.64C158.692 155.747 158.416 155.905 158.172 156.106C157.241 156.877 156.787 157.806 156.094 158.345C155.59 158.82 154.936 159.105 154.245 159.151C154.061 159.15 153.879 159.122 153.704 159.068L153.535 159.002C153.758 159.079 153.992 159.119 154.227 159.12C154.905 159.062 155.542 158.774 156.032 158.304C156.704 157.768 157.133 156.839 158.079 156.044C158.332 155.833 158.619 155.668 158.927 155.553C159.271 155.43 159.639 155.389 160.001 155.432C160.375 155.494 160.733 155.63 161.053 155.832C161.373 156.034 161.649 156.299 161.864 156.611C162.089 156.913 162.262 157.251 162.377 157.609C162.489 157.975 162.583 158.347 162.658 158.722C162.733 159.109 162.842 159.488 162.983 159.856C163.138 160.246 163.374 160.599 163.676 160.892C164.004 161.213 164.429 161.417 164.885 161.473C165.365 161.514 165.847 161.413 166.27 161.183C166.693 160.962 167.065 160.654 167.361 160.281C167.652 159.904 167.912 159.506 168.14 159.088C168.379 158.655 168.652 158.241 168.958 157.851C169.294 157.431 169.718 157.089 170.201 156.849C170.734 156.594 171.338 156.524 171.916 156.652C172.476 156.794 173.004 157.041 173.471 157.381C173.938 157.696 174.375 158.041 174.856 158.345C175.33 158.672 175.865 158.9 176.429 159.016C177.015 159.13 177.619 159.123 178.202 158.995C178.782 158.88 179.33 158.645 179.813 158.304C180.042 158.141 180.251 157.949 180.433 157.734C180.601 157.522 180.743 157.289 180.855 157.043C181.064 156.555 181.224 156.048 181.333 155.529C181.44 155.008 181.607 154.501 181.832 154.019C182.082 153.519 182.455 153.091 182.916 152.775C183.164 152.608 183.443 152.491 183.737 152.432C184.03 152.373 184.333 152.372 184.627 152.429C185.18 152.557 185.68 152.856 186.054 153.283C186.792 154.064 187.069 155.011 187.602 155.819C187.858 156.228 188.202 156.576 188.61 156.835C189.041 157.088 189.538 157.208 190.037 157.181C190.986 157.094 191.885 156.713 192.607 156.092C193.3 155.532 193.885 154.9 194.553 154.382C195.206 153.842 195.99 153.484 196.825 153.345C197.228 153.284 197.64 153.305 198.034 153.407C198.393 153.51 198.726 153.688 199.011 153.929C199.478 154.358 199.85 154.881 200.102 155.463C200.309 155.953 200.54 156.431 200.795 156.897C201.022 157.299 201.334 157.647 201.709 157.917C201.992 158.109 202.313 158.239 202.65 158.299C202.988 158.359 203.334 158.346 203.666 158.262C203.917 158.186 204.144 158.045 204.324 157.855Z" fill="#455A64"/>
<path d="M207.808 157.198C207.808 157.198 207.746 157.198 207.618 157.198C207.539 157.194 207.46 157.185 207.382 157.17C207.279 157.146 207.177 157.115 207.077 157.077C206.456 156.791 205.898 156.385 205.436 155.881C205.283 155.726 205.124 155.56 204.965 155.384C204.808 155.191 204.638 155.01 204.456 154.841C203.994 154.467 203.428 154.244 202.835 154.202C202.501 154.174 202.164 154.21 201.844 154.309C201.519 154.42 201.22 154.595 200.964 154.824C200.448 155.335 199.963 155.878 199.513 156.448C199.243 156.753 198.929 157.016 198.581 157.229C198.193 157.455 197.761 157.595 197.314 157.64C196.359 157.697 195.403 157.542 194.515 157.188C193.601 156.859 192.728 156.407 191.744 156.116C191.248 155.959 190.733 155.87 190.213 155.85C189.684 155.839 189.158 155.938 188.669 156.141C187.685 156.548 186.916 157.295 185.988 157.9C185.511 158.222 184.988 158.47 184.436 158.636C183.859 158.806 183.261 158.896 182.659 158.902C181.429 158.922 180.213 158.631 179.127 158.055C178.075 157.493 177.16 156.706 176.449 155.75C175.732 154.82 175.338 153.763 174.818 152.799C174.568 152.31 174.249 151.858 173.872 151.458C173.48 151.055 173.008 150.737 172.487 150.525C171.955 150.304 171.368 150.25 170.804 150.369C170.277 150.5 169.797 150.775 169.418 151.164C169.061 151.526 168.777 151.953 168.58 152.422C168.4 152.871 168.255 153.333 168.147 153.804C168.033 154.271 167.929 154.737 167.784 155.187C167.639 155.64 167.437 156.073 167.184 156.476C166.672 157.28 165.979 157.956 165.162 158.449C164.36 158.946 163.459 159.262 162.522 159.375C161.639 159.472 160.744 159.383 159.897 159.113C158.3 158.615 157.171 157.544 156.752 156.445C156.534 155.895 156.423 155.37 156.267 154.9C156.143 154.458 155.93 154.047 155.64 153.69C155.413 153.433 155.133 153.227 154.818 153.088C154.504 152.949 154.163 152.88 153.819 152.885C153.573 152.899 153.335 152.974 153.126 153.103C153.325 152.95 153.567 152.863 153.819 152.854C154.171 152.842 154.522 152.908 154.847 153.046C155.171 153.185 155.461 153.393 155.696 153.656C155.996 154.014 156.219 154.431 156.35 154.879C156.513 155.353 156.627 155.878 156.849 156.414C157.268 157.488 158.377 158.532 159.942 159.012C160.765 159.27 161.634 159.354 162.491 159.258C163.404 159.143 164.28 158.833 165.061 158.349C165.858 157.862 166.532 157.198 167.032 156.41C167.498 155.594 167.817 154.703 167.974 153.777C168.081 153.296 168.227 152.824 168.41 152.367C168.614 151.883 168.908 151.442 169.276 151.067C169.687 150.633 170.222 150.333 170.808 150.21C171.394 150.086 172.004 150.144 172.556 150.376C173.104 150.596 173.601 150.927 174.014 151.347C174.403 151.76 174.732 152.226 174.991 152.73C175.518 153.711 175.906 154.751 176.609 155.664C177.306 156.6 178.201 157.371 179.231 157.924C180.288 158.482 181.47 158.766 182.666 158.75C183.252 158.741 183.835 158.655 184.398 158.494C184.932 158.331 185.44 158.091 185.905 157.782C186.816 157.188 187.592 156.434 188.617 156.013C189.128 155.799 189.68 155.695 190.234 155.709C190.77 155.73 191.3 155.823 191.81 155.985C192.811 156.282 193.691 156.742 194.581 157.067C195.445 157.416 196.376 157.57 197.307 157.519C197.734 157.479 198.147 157.347 198.519 157.132C198.857 156.928 199.162 156.672 199.423 156.376C199.881 155.806 200.373 155.264 200.895 154.751C201.164 154.513 201.479 154.332 201.82 154.219C202.156 154.117 202.509 154.08 202.859 154.112C203.472 154.159 204.055 154.394 204.528 154.786C204.711 154.959 204.882 155.143 205.041 155.339C205.197 155.518 205.353 155.684 205.502 155.836C205.951 156.34 206.496 156.75 207.105 157.043C207.325 157.147 207.565 157.2 207.808 157.198Z" fill="#2F2F2F"/>
<path d="M150.233 150.006C149.998 150.084 149.749 150.111 149.502 150.085C149.257 150.111 149.009 150.084 148.775 150.006C149.01 149.931 149.257 149.905 149.502 149.93C149.749 149.906 149.997 149.932 150.233 150.006Z" fill="#E0E0E0"/>
<path d="M150.233 152.686C149.997 152.76 149.749 152.786 149.502 152.762C149.257 152.786 149.01 152.76 148.775 152.686C149.009 152.609 149.257 152.583 149.502 152.61C149.749 152.584 149.998 152.61 150.233 152.686Z" fill="#E0E0E0"/>
<path d="M150.233 155.362C149.997 155.436 149.749 155.462 149.503 155.438C149.258 155.462 149.01 155.437 148.775 155.362C149.01 155.288 149.258 155.262 149.503 155.286C149.749 155.262 149.997 155.288 150.233 155.362Z" fill="#E0E0E0"/>
<path d="M150.233 158.037C149.998 158.115 149.749 158.142 149.502 158.116C149.257 158.143 149.009 158.116 148.775 158.037C149.01 157.963 149.257 157.937 149.502 157.961C149.749 157.937 149.997 157.963 150.233 158.037Z" fill="#E0E0E0"/>
<path d="M150.233 160.713C149.997 160.787 149.749 160.813 149.503 160.789C149.258 160.813 149.01 160.788 148.775 160.713C149.009 160.635 149.257 160.608 149.503 160.634C149.749 160.608 149.998 160.635 150.233 160.713Z" fill="#E0E0E0"/>
<path d="M156.93 164.153C155.962 164.255 154.986 164.255 154.018 164.153C154.986 164.052 155.962 164.052 156.93 164.153Z" fill="#E0E0E0"/>
<path d="M169.779 164.153C168.811 164.255 167.835 164.255 166.866 164.153C167.835 164.052 168.811 164.052 169.779 164.153Z" fill="#E0E0E0"/>
<path d="M182.629 164.153C181.66 164.255 180.682 164.255 179.713 164.153C180.682 164.052 181.66 164.052 182.629 164.153Z" fill="#E0E0E0"/>
<path d="M195.478 164.153C194.508 164.255 193.531 164.255 192.561 164.153C193.531 164.052 194.508 164.052 195.478 164.153Z" fill="#E0E0E0"/>
<path d="M208.325 164.153C207.357 164.255 206.381 164.255 205.413 164.153C206.381 164.052 207.357 164.052 208.325 164.153Z" fill="#E0E0E0"/>
</g>
<defs>
<filter id="filter0_d_507_769" x="0" y="0" width="323.65" height="275.205" filterUnits="userSpaceOnUse" color-interpolation-filters="sRGB">
<feFlood flood-opacity="0" result="BackgroundImageFix"/>
<feColorMatrix in="SourceAlpha" type="matrix" values="0 0 0 0 0 0 0 0 0 0 0 0 0 0 0 0 0 0 127 0" result="hardAlpha"/>
<feOffset dy="4"/>
<feGaussianBlur stdDeviation="50"/>
<feComposite in2="hardAlpha" operator="out"/>
<feColorMatrix type="matrix" values="0 0 0 0 0.141176 0 0 0 0 1 0 0 0 0 0 0 0 0 0.25 0"/>
<feBlend mode="normal" in2="BackgroundImageFix" result="effect1_dropShadow_507_769"/>
<feBlend mode="normal" in="SourceGraphic" in2="effect1_dropShadow_507_769" result="shape"/>
</filter>
</defs>
</svg>
