<svg width="128" height="103" viewBox="0 0 128 103" fill="none" xmlns="http://www.w3.org/2000/svg">
<path d="M64.0001 27C99.1016 27 127.557 20.9558 127.557 13.5C127.557 6.04416 99.1016 0 64.0001 0C28.8987 0 0.443359 6.04416 0.443359 13.5C0.443359 20.9558 28.8987 27 64.0001 27Z" fill="#747F81"/>
<path d="M64.0001 28.0544C28.8977 28.0544 0.443359 22.3698 0.443359 15.409V90.3536C0.443359 97.3144 28.8977 102.999 64.0001 102.999C99.1026 102.999 127.557 97.3144 127.557 90.3536V15.293C127.557 22.3698 99.1026 28.0544 64.0001 28.0544Z" fill="#273335"/>
<path opacity="0.75" d="M64.0001 28.0544C28.8977 28.0544 0.443359 22.3698 0.443359 15.409V90.3536C0.443359 97.3144 28.8977 102.999 64.0001 102.999C99.1026 102.999 127.557 97.3144 127.557 90.3536V15.293C127.557 22.3698 99.1026 28.0544 64.0001 28.0544Z" fill="#273335"/>
<path d="M64 55.3518C32.5319 55.3518 0 51.6459 0 45.293H0.886427C0.886427 49.7047 26.2382 54.4694 64 54.4694C101.762 54.4694 127.114 49.7047 127.114 45.293H128C128 51.6459 95.4681 55.3518 64 55.3518Z" fill="white"/>
<path d="M64 81.0578C32.5319 81.0578 0 77.352 0 70.999H0.886427C0.886427 75.4108 26.2382 80.1755 64 80.1755C101.762 80.1755 127.114 75.4108 127.114 70.999H128C128 77.352 95.4681 81.0578 64 81.0578Z" fill="white"/>
</svg>
