<svg width="268" height="153" viewBox="0 0 268 153" fill="none" xmlns="http://www.w3.org/2000/svg">
<mask id="path-1-inside-1_45_130" fill="white">
<path fill-rule="evenodd" clip-rule="evenodd" d="M29 0H0V112C0 128.016 12.9837 141 29 141H251V112H29V0Z"/>
</mask>
<path fill-rule="evenodd" clip-rule="evenodd" d="M29 0H0V112C0 128.016 12.9837 141 29 141H251V112H29V0Z" fill="#E8E8E8"/>
<path d="M0 0V-2H-2V0H0ZM29 0H31V-2H29V0ZM251 141V143H253V141H251ZM251 112H253V110H251V112ZM29 112H27V114H29V112ZM0 2H29V-2H0V2ZM2 112V0H-2V112H2ZM29 139C14.0883 139 2 126.912 2 112H-2C-2 129.121 11.8792 143 29 143V139ZM251 139H29V143H251V139ZM249 112V141H253V112H249ZM29 114H251V110H29V114ZM27 0V112H31V0H27Z" fill="#E3E3E3" mask="url(#path-1-inside-1_45_130)"/>
<path fill-rule="evenodd" clip-rule="evenodd" d="M241.524 117.995H208.668C207.704 117.995 206.934 119.218 206.934 120.747C206.934 122.276 207.704 123.499 208.668 123.499H241.524C242.488 123.499 243.258 122.276 243.258 120.747C243.258 119.218 242.488 117.995 241.524 117.995Z" fill="white"/>
<path fill-rule="evenodd" clip-rule="evenodd" d="M191.609 117.995H202.995C203.96 117.995 204.732 119.218 204.732 120.747C204.732 122.276 203.96 123.499 202.995 123.499H191.609C190.644 123.499 189.872 122.276 189.872 120.747C189.872 119.218 190.644 117.995 191.609 117.995Z" fill="white"/>
<path fill-rule="evenodd" clip-rule="evenodd" d="M267.414 147.718V103.486C267.414 100.982 265.433 99 262.93 99H254.484C251.981 99 250 100.982 250 103.486V147.718C250 150.222 251.981 152.204 254.484 152.204H262.93C265.329 152.204 267.414 150.222 267.414 147.718Z" fill="#747F81"/>
<path fill-rule="evenodd" clip-rule="evenodd" d="M265.642 147.718C265.642 149.283 264.39 150.535 262.826 150.535H254.38C252.816 150.535 251.564 149.283 251.564 147.718V103.486C251.564 101.921 252.816 100.669 254.38 100.669H262.826C264.39 100.669 265.642 101.921 265.642 103.486V147.718Z" fill="#455456"/>
<path fill-rule="evenodd" clip-rule="evenodd" d="M264.077 137.808V115.692C264.077 114.648 263.452 113.814 262.618 113.814H258.134C257.299 113.814 256.674 114.648 256.674 115.692V137.808C256.674 138.851 257.299 139.686 258.134 139.686H262.618C263.452 139.686 264.077 138.851 264.077 137.808Z" fill="#747F81"/>
<path fill-rule="evenodd" clip-rule="evenodd" d="M254.797 104.842V149.283C254.797 149.7 254.901 150.118 255.006 150.431H254.38C252.816 150.431 251.564 149.179 251.564 147.614V103.173C251.564 101.608 252.816 100.356 254.38 100.356H262.826C263.973 100.356 264.912 100.982 265.329 101.921H257.508C256.048 102.13 254.797 103.382 254.797 104.842Z" fill="#455456"/>
<path fill-rule="evenodd" clip-rule="evenodd" d="M264.077 143.337V147.406C264.077 148.136 263.452 148.762 262.722 148.762H258.029C257.3 148.762 256.674 148.136 256.674 147.406V143.337C256.674 142.607 257.3 141.981 258.029 141.981H262.722C263.452 141.876 264.077 142.502 264.077 143.337Z" fill="#747F81"/>
<path fill-rule="evenodd" clip-rule="evenodd" d="M262.931 145.109V146.883C262.931 147.196 262.618 147.509 262.305 147.509H260.219C259.907 147.509 259.594 147.196 259.594 146.883V145.005C259.594 144.692 259.907 144.379 260.219 144.379H262.305C262.722 144.483 262.931 144.692 262.931 145.109Z" fill="#919898"/>
<path fill-rule="evenodd" clip-rule="evenodd" d="M262.93 130.61V137.809C262.93 138.226 262.617 138.435 262.304 138.435H260.323C259.906 138.435 259.697 138.122 259.697 137.809V130.61C259.697 130.193 260.01 129.985 260.323 129.985H262.304C262.617 129.88 262.93 130.193 262.93 130.61Z" fill="#24FF00"/>
<path fill-rule="evenodd" clip-rule="evenodd" d="M262.931 126.437V128.314C262.931 128.627 262.618 128.94 262.305 128.94H260.219C259.907 128.94 259.594 128.627 259.594 128.314V126.437C259.594 126.124 259.907 125.811 260.219 125.811H262.305C262.722 125.811 262.931 126.124 262.931 126.437Z" fill="#24FF00"/>
</svg>
