<svg width="84" height="84" viewBox="0 0 84 84" fill="none" xmlns="http://www.w3.org/2000/svg">
<path fill-rule="evenodd" clip-rule="evenodd" d="M42.1359 80.6476C63.7985 80.6476 81.5534 63.1619 81.5534 41.6411C81.4684 20.2044 63.7985 2.71875 42.1359 2.71875C20.3883 2.71875 2.71844 20.2044 2.71844 41.7252C2.71844 63.1619 20.3883 80.6476 42.1359 80.6476Z" fill="#455456"/>
<path fill-rule="evenodd" clip-rule="evenodd" d="M42.0453 7.70215C60.9838 7.70215 76.3884 23.1067 76.3884 42.0452C76.3884 60.9837 60.9838 76.3882 42.0453 76.3882C23.1068 76.3882 7.70227 60.9837 7.70227 42.0452C7.70227 23.0161 23.0162 7.70215 42.0453 7.70215Z" fill="#273335"/>
<path fill-rule="evenodd" clip-rule="evenodd" d="M42.0453 71.2237C58.1748 71.2237 71.3139 58.0846 71.3139 41.9551C71.3139 25.8257 58.1748 12.6865 42.0453 12.6865C25.9159 12.6865 12.7767 25.8257 12.7767 41.9551C12.7767 58.0846 25.9159 71.2237 42.0453 71.2237Z" fill="white"/>
<path fill-rule="evenodd" clip-rule="evenodd" d="M42.0453 22.9258C52.5566 22.9258 61.1651 31.4436 61.1651 42.0455C61.1651 52.5569 52.6473 61.1653 42.0453 61.1653C31.534 61.1653 22.9256 52.6475 22.9256 42.0455C22.9256 31.4436 31.4434 22.9258 42.0453 22.9258Z" fill="#DCDEDE"/>
<path fill-rule="evenodd" clip-rule="evenodd" d="M40.7767 65.6966C40.7767 65.0622 41.3204 64.5186 41.9547 64.5186C42.589 64.5186 43.1327 65.0622 43.1327 65.6966V67.9619C43.1327 68.5962 42.589 69.1399 41.9547 69.1399C41.3204 69.1399 40.7767 68.5962 40.7767 67.9619V65.6966Z" fill="#24FF00"/>
<path fill-rule="evenodd" clip-rule="evenodd" d="M29.178 61.8906C29.5405 61.3469 30.2654 61.075 30.8091 61.4375C31.3528 61.8 31.6246 62.5249 31.2621 63.0686L30.0841 65.0621C29.7217 65.6058 28.9968 65.8776 28.4531 65.5152C27.9094 65.1527 27.6375 64.4278 28 63.8841L29.178 61.8906Z" fill="#24FF00"/>
<path fill-rule="evenodd" clip-rule="evenodd" d="M20.932 52.8291C21.4757 52.4666 22.2913 52.7385 22.5631 53.2822C22.9256 53.8259 22.6537 54.6414 22.11 54.9132L20.1165 56.0912C19.5728 56.4537 18.7573 56.1819 18.4854 55.6382C18.123 55.0945 18.3948 54.2789 18.9385 54.0071L20.932 52.8291Z" fill="#24FF00"/>
<path fill-rule="evenodd" clip-rule="evenodd" d="M18.3948 40.7773C19.0291 40.7773 19.5728 41.321 19.5728 41.9553C19.5728 42.5896 19.0291 43.1333 18.3948 43.1333H16.0388C15.4045 43.1333 14.8608 42.5896 14.8608 41.9553C14.8608 41.321 15.4045 40.7773 16.0388 40.7773H18.3948Z" fill="#24FF00"/>
<path fill-rule="evenodd" clip-rule="evenodd" d="M22.11 29.178C22.6537 29.5405 22.9256 30.2654 22.5631 30.8091C22.2006 31.3528 21.4757 31.6246 20.932 31.2621L18.9385 30.0841C18.3948 29.7217 18.123 28.9968 18.4854 28.4531C18.8479 27.9094 19.5728 27.6375 20.1165 28L22.11 29.178Z" fill="#F5A608"/>
<path fill-rule="evenodd" clip-rule="evenodd" d="M31.2621 20.932C31.6246 21.4756 31.3528 22.2912 30.8091 22.563C30.2654 22.9255 29.4498 22.6536 29.178 22.1099L28 20.1164C27.6375 19.5727 27.9094 18.7572 28.4531 18.4854C28.9968 18.1229 29.8123 18.3947 30.0841 18.9384L31.2621 20.932Z" fill="#919898"/>
<path fill-rule="evenodd" clip-rule="evenodd" d="M40.7767 16.0393C40.7767 15.405 41.3204 14.8613 41.9547 14.8613C42.589 14.8613 43.1327 15.405 43.1327 16.0393V18.3953C43.1327 19.0296 42.589 19.5733 41.9547 19.5733C41.3204 19.5733 40.7767 19.0296 40.7767 18.3953V16.0393Z" fill="#919898"/>
<path fill-rule="evenodd" clip-rule="evenodd" d="M53.9159 18.9384C54.2783 18.3947 55.0032 18.1229 55.5469 18.4854C56.0906 18.8478 56.3625 19.5727 56 20.1164L54.822 22.1099C54.4596 22.6536 53.7346 22.9255 53.1909 22.563C52.6473 22.2006 52.3754 21.4756 52.7379 20.932L53.9159 18.9384Z" fill="#919898"/>
<path fill-rule="evenodd" clip-rule="evenodd" d="M63.8835 28C64.4272 27.6375 65.2427 27.9094 65.5146 28.4531C65.877 28.9968 65.6052 29.8123 65.0615 30.0841L63.068 31.2621C62.5243 31.6246 61.7087 31.3528 61.4369 30.8091C61.0744 30.2654 61.3463 29.4498 61.89 29.178L63.8835 28Z" fill="#919898"/>
<path fill-rule="evenodd" clip-rule="evenodd" d="M67.9612 40.7773C68.5955 40.7773 69.1392 41.321 69.1392 41.9553C69.1392 42.5896 68.5955 43.1333 67.9612 43.1333H65.6052C64.9709 43.1333 64.4272 42.5896 64.4272 41.9553C64.4272 41.321 64.9709 40.7773 65.6052 40.7773H67.9612Z" fill="#919898"/>
<path fill-rule="evenodd" clip-rule="evenodd" d="M65.1521 53.9163C65.6958 54.2787 65.9676 55.0037 65.6052 55.5473C65.2427 56.091 64.5178 56.3629 63.9741 56.0004L61.9806 54.8224C61.4369 54.46 61.1651 53.735 61.5275 53.1914C61.89 52.6477 62.6149 52.3758 63.1586 52.7383L65.1521 53.9163Z" fill="#919898"/>
<path fill-rule="evenodd" clip-rule="evenodd" d="M56.0906 63.8841C56.4531 64.4278 56.1812 65.2433 55.6375 65.5152C55.0938 65.8776 54.2783 65.6058 54.0065 65.0621L52.8285 63.0686C52.466 62.5249 52.7379 61.7093 53.2816 61.4375C53.8252 61.075 54.6408 61.3469 54.9126 61.8906L56.0906 63.8841Z" fill="#919898"/>
<path fill-rule="evenodd" clip-rule="evenodd" d="M75.9194 30.6201C75.6953 30.0702 75.9503 29.3806 76.4446 29.1118C76.939 28.8431 77.5435 29.1109 77.7676 29.6608C78.5995 31.9184 79.2374 34.3494 79.5255 36.8045C79.8212 39.1951 79.8089 41.7455 79.5114 44.2622C79.4351 44.9075 78.9178 45.3698 78.3475 45.3024C77.7772 45.235 77.3819 44.6648 77.4582 44.0195C77.7328 41.6964 77.7223 39.3395 77.4607 37.1493C77.2638 34.9013 76.7171 32.6774 75.9194 30.6201ZM72.5908 24.534C72.245 24.0351 72.3289 23.3252 72.7245 22.914C73.1771 22.5094 73.8044 22.5836 74.1579 23.018C74.5037 23.5169 74.8496 24.0158 75.1954 24.5147C75.5412 25.0136 75.8224 25.5703 76.1112 26.0625C76.3923 26.6192 76.2514 27.3223 75.7494 27.6556C75.2473 27.9888 74.6276 27.8501 74.3465 27.2934C74.0577 26.8012 73.7689 26.3091 73.4801 25.8169C73.2407 25.396 72.9443 24.9684 72.5908 24.534Z" fill="#919898"/>
<path fill-rule="evenodd" clip-rule="evenodd" d="M42.3172 40.8678C42.9515 41.0491 43.3139 41.6834 43.1327 42.3177C42.9515 42.952 42.3171 43.3144 41.6828 43.1332L25.3722 38.7837C24.7379 38.6025 24.3754 37.9682 24.5566 37.3339C24.7379 36.6996 25.3722 36.3371 26.0065 36.5183L42.3172 40.8678Z" fill="#24FF00"/>
</svg>
