<svg width="19" height="54" viewBox="0 0 19 54" fill="none" xmlns="http://www.w3.org/2000/svg">
<path fill-rule="evenodd" clip-rule="evenodd" d="M18.2412 48.7147V4.4855C18.2412 1.98196 16.2601 -3.8147e-06 13.7576 -3.8147e-06H5.31191C2.80948 -3.8147e-06 0.8284 1.98196 0.8284 4.4855V48.7147C0.8284 51.2182 2.80948 53.2002 5.31191 53.2002H13.7576C16.1558 53.2002 18.2412 51.2182 18.2412 48.7147Z" fill="#747F81"/>
<path fill-rule="evenodd" clip-rule="evenodd" d="M16.4686 48.7148C16.4686 50.2795 15.2174 51.5312 13.6534 51.5312H5.20767C3.64365 51.5312 2.39243 50.2795 2.39243 48.7148V4.48559C2.39243 2.92088 3.64365 1.66911 5.20767 1.66911H13.6534C15.2174 1.66911 16.4686 2.92088 16.4686 4.48559V48.7148Z" fill="#455456"/>
<path fill-rule="evenodd" clip-rule="evenodd" d="M14.9046 38.805V16.6904C14.9046 15.6472 14.279 14.8127 13.4449 14.8127H8.96136C8.12722 14.8127 7.50162 15.6472 7.50162 16.6904V38.805C7.50162 39.8481 8.12722 40.6826 8.96136 40.6826H13.4449C14.279 40.6826 14.9046 39.8481 14.9046 38.805Z" fill="#747F81"/>
<path fill-rule="evenodd" clip-rule="evenodd" d="M5.62474 5.8415V50.2793C5.62474 50.6966 5.72899 51.1138 5.83326 51.4268H5.20767C3.64365 51.4268 2.39243 50.175 2.39243 48.6103V4.17247C2.39243 2.60776 3.64365 1.35599 5.20767 1.35599H13.6534C14.8003 1.35599 15.7387 1.98187 16.1558 2.9207H8.33571C6.87596 3.12933 5.62474 4.3811 5.62474 5.8415Z" fill="#455456"/>
<path fill-rule="evenodd" clip-rule="evenodd" d="M14.9046 44.3335V48.4017C14.9046 49.1319 14.2791 49.7578 13.5492 49.7578H8.85712C8.12724 49.7578 7.50162 49.1319 7.50162 48.4017V44.3335C7.50162 43.6033 8.12724 42.9774 8.85712 42.9774H13.5492C14.2791 42.8731 14.9046 43.499 14.9046 44.3335Z" fill="#747F81"/>
<path fill-rule="evenodd" clip-rule="evenodd" d="M13.7576 46.1066V47.88C13.7576 48.1929 13.4448 48.5059 13.132 48.5059H11.0467C10.7339 48.5059 10.4211 48.1929 10.4211 47.88V46.0023C10.4211 45.6894 10.7339 45.3764 11.0467 45.3764H13.132C13.5491 45.4808 13.7576 45.6894 13.7576 46.1066Z" fill="#919898"/>
<path fill-rule="evenodd" clip-rule="evenodd" d="M13.7576 31.6081V38.8058C13.7576 39.223 13.4448 39.4316 13.132 39.4316H11.1509C10.7338 39.4316 10.5253 39.1187 10.5253 38.8058V31.6081C10.5253 31.1908 10.8381 30.9822 11.1509 30.9822H13.132C13.4448 30.8779 13.7576 31.1908 13.7576 31.6081Z" fill="#24FF00"/>
<path fill-rule="evenodd" clip-rule="evenodd" d="M13.7576 27.4349V29.3126C13.7576 29.6255 13.4448 29.9385 13.132 29.9385H11.0467C10.7339 29.9385 10.4211 29.6255 10.4211 29.3126V27.4349C10.4211 27.122 10.7339 26.8091 11.0467 26.8091H13.132C13.5491 26.8091 13.7576 27.122 13.7576 27.4349Z" fill="#24FF00"/>
</svg>