<svg width="267" height="54" viewBox="0 0 267 54" fill="none" xmlns="http://www.w3.org/2000/svg">
<path d="M1 13V40H253.928V13H1Z" fill="#E8E8E8" stroke="#E3E3E3" stroke-width="2"/>
<path fill-rule="evenodd" clip-rule="evenodd" d="M237.183 16.4962H204.327C203.363 16.4962 202.592 17.7193 202.592 19.2481C202.592 20.7769 203.363 22 204.327 22H237.183C238.146 22 238.917 20.7769 238.917 19.2481C238.917 17.7193 238.146 16.4962 237.183 16.4962Z" fill="white"/>
<path fill-rule="evenodd" clip-rule="evenodd" d="M187.268 16.4962H198.654C199.619 16.4962 200.391 17.7193 200.391 19.2481C200.391 20.7769 199.619 22 198.654 22H187.268C186.303 22 185.531 20.7769 185.531 19.2481C185.531 17.7193 186.303 16.4962 187.268 16.4962Z" fill="white"/>
<path fill-rule="evenodd" clip-rule="evenodd" d="M266.241 48.7147V4.4855C266.241 1.98196 264.26 -3.8147e-06 261.758 -3.8147e-06H253.312C250.809 -3.8147e-06 248.828 1.98196 248.828 4.4855V48.7147C248.828 51.2182 250.809 53.2002 253.312 53.2002H261.758C264.156 53.2002 266.241 51.2182 266.241 48.7147Z" fill="#747F81"/>
<path fill-rule="evenodd" clip-rule="evenodd" d="M264.469 48.7148C264.469 50.2795 263.217 51.5312 261.653 51.5312H253.208C251.644 51.5312 250.392 50.2795 250.392 48.7148V4.48559C250.392 2.92088 251.644 1.66911 253.208 1.66911H261.653C263.217 1.66911 264.469 2.92088 264.469 4.48559V48.7148Z" fill="#455456"/>
<path fill-rule="evenodd" clip-rule="evenodd" d="M262.905 38.805V16.6904C262.905 15.6472 262.279 14.8127 261.445 14.8127H256.961C256.127 14.8127 255.502 15.6472 255.502 16.6904V38.805C255.502 39.8481 256.127 40.6826 256.961 40.6826H261.445C262.279 40.6826 262.905 39.8481 262.905 38.805Z" fill="#747F81"/>
<path fill-rule="evenodd" clip-rule="evenodd" d="M253.625 5.8415V50.2793C253.625 50.6966 253.729 51.1138 253.833 51.4268H253.208C251.644 51.4268 250.392 50.175 250.392 48.6103V4.17247C250.392 2.60776 251.644 1.35599 253.208 1.35599H261.653C262.8 1.35599 263.739 1.98187 264.156 2.9207H256.336C254.876 3.12933 253.625 4.3811 253.625 5.8415Z" fill="#455456"/>
<path fill-rule="evenodd" clip-rule="evenodd" d="M262.905 44.3335V48.4017C262.905 49.1319 262.279 49.7578 261.549 49.7578H256.857C256.127 49.7578 255.502 49.1319 255.502 48.4017V44.3335C255.502 43.6033 256.127 42.9774 256.857 42.9774H261.549C262.279 42.8731 262.905 43.499 262.905 44.3335Z" fill="#747F81"/>
<path fill-rule="evenodd" clip-rule="evenodd" d="M261.758 46.1066V47.88C261.758 48.1929 261.445 48.5059 261.132 48.5059H259.047C258.734 48.5059 258.421 48.1929 258.421 47.88V46.0023C258.421 45.6894 258.734 45.3764 259.047 45.3764H261.132C261.549 45.4808 261.758 45.6894 261.758 46.1066Z" fill="#919898"/>
<path fill-rule="evenodd" clip-rule="evenodd" d="M261.758 31.6081V38.8058C261.758 39.223 261.445 39.4316 261.132 39.4316H259.151C258.734 39.4316 258.525 39.1187 258.525 38.8058V31.6081C258.525 31.1908 258.838 30.9822 259.151 30.9822H261.132C261.445 30.8779 261.758 31.1908 261.758 31.6081Z" fill="#24FF00"/>
<path fill-rule="evenodd" clip-rule="evenodd" d="M261.758 27.4349V29.3126C261.758 29.6255 261.445 29.9385 261.132 29.9385H259.047C258.734 29.9385 258.421 29.6255 258.421 29.3126V27.4349C258.421 27.122 258.734 26.8091 259.047 26.8091H261.132C261.549 26.8091 261.758 27.122 261.758 27.4349Z" fill="#24FF00"/>
</svg>
