<svg width="206" height="171" viewBox="0 0 206 171" fill="none" xmlns="http://www.w3.org/2000/svg">
<path d="M111 161.891V37.0605H138V161.891H111Z" fill="#E8E8E8" stroke="#E3E3E3" stroke-width="2"/>
<path fill-rule="evenodd" clip-rule="evenodd" d="M133.631 66.1636V76.249C133.631 77.777 132.41 78.9995 130.882 78.9995C129.355 78.9995 128.133 77.777 128.133 76.249V66.1636C128.133 64.6355 129.355 63.4131 130.882 63.4131C132.257 63.4131 133.631 64.6355 133.631 66.1636Z" fill="white"/>
<path fill-rule="evenodd" clip-rule="evenodd" d="M133.631 120.41V86.7925C133.631 85.2644 132.41 84.042 130.882 84.042C129.355 84.042 128.133 85.2644 128.133 86.7925V120.257C128.133 121.786 129.355 123.008 130.882 123.008C132.257 123.161 133.631 121.938 133.631 120.41Z" fill="white"/>
<path fill-rule="evenodd" clip-rule="evenodd" d="M146.718 152.999L102.486 152.999C99.9821 152.999 98 154.98 98 157.483L98 165.929C98 168.432 99.9821 170.413 102.486 170.413L146.718 170.413C149.222 170.413 151.204 168.432 151.204 165.929L151.204 157.483C151.204 155.085 149.222 152.999 146.718 152.999Z" fill="#747F81"/>
<path fill-rule="evenodd" clip-rule="evenodd" d="M146.718 154.771C148.283 154.771 149.535 156.023 149.535 157.587L149.535 166.033C149.535 167.597 148.283 168.849 146.718 168.849L102.486 168.849C100.921 168.849 99.6693 167.597 99.6693 166.033L99.6693 157.587C99.6693 156.023 100.921 154.771 102.486 154.771L146.718 154.771Z" fill="#455456"/>
<path fill-rule="evenodd" clip-rule="evenodd" d="M136.808 156.336L114.692 156.336C113.648 156.336 112.814 156.961 112.814 157.796L112.814 162.279C112.814 163.114 113.648 163.739 114.692 163.739L136.808 163.739C137.851 163.739 138.686 163.114 138.686 162.279L138.686 157.796C138.686 156.961 137.851 156.336 136.808 156.336Z" fill="#747F81"/>
<path fill-rule="evenodd" clip-rule="evenodd" d="M103.842 165.616L148.283 165.616C148.7 165.616 149.118 165.512 149.431 165.408L149.431 166.033C149.431 167.597 148.179 168.849 146.614 168.849L102.173 168.849C100.608 168.849 99.3562 167.597 99.3562 166.033L99.3562 157.587C99.3562 156.44 99.9821 155.501 100.921 155.084L100.921 162.905C101.13 164.365 102.382 165.616 103.842 165.616Z" fill="#455456"/>
<path fill-rule="evenodd" clip-rule="evenodd" d="M142.337 156.336L146.406 156.336C147.136 156.336 147.762 156.961 147.762 157.691L147.762 162.384C147.762 163.114 147.136 163.739 146.406 163.739L142.337 163.739C141.607 163.739 140.981 163.114 140.981 162.384L140.981 157.691C140.876 156.961 141.502 156.336 142.337 156.336Z" fill="#747F81"/>
<path fill-rule="evenodd" clip-rule="evenodd" d="M144.109 157.483L145.883 157.483C146.196 157.483 146.509 157.795 146.509 158.108L146.509 160.194C146.509 160.507 146.196 160.819 145.883 160.819L144.005 160.819C143.692 160.819 143.379 160.507 143.379 160.194L143.379 158.108C143.483 157.691 143.692 157.483 144.109 157.483Z" fill="#919898"/>
<path fill-rule="evenodd" clip-rule="evenodd" d="M129.61 157.483L136.809 157.483C137.226 157.483 137.435 157.796 137.435 158.109L137.435 160.09C137.435 160.507 137.122 160.716 136.809 160.716L129.61 160.716C129.193 160.716 128.985 160.403 128.985 160.09L128.985 158.109C128.88 157.796 129.193 157.483 129.61 157.483Z" fill="#24FF00"/>
<path fill-rule="evenodd" clip-rule="evenodd" d="M125.437 157.483L127.314 157.483C127.627 157.483 127.94 157.795 127.94 158.108L127.94 160.194C127.94 160.507 127.627 160.819 127.314 160.819L125.437 160.819C125.124 160.819 124.811 160.507 124.811 160.194L124.811 158.108C124.811 157.691 125.124 157.483 125.437 157.483Z" fill="#24FF00"/>
<path d="M1 13V40H195V13H1Z" fill="#E8E8E8" stroke="#E3E3E3" stroke-width="2"/>
<path fill-rule="evenodd" clip-rule="evenodd" d="M183.524 16.4962H150.668C149.704 16.4962 148.934 17.7193 148.934 19.2481C148.934 20.7769 149.704 22 150.668 22H183.524C184.488 22 185.258 20.7769 185.258 19.2481C185.258 17.7193 184.488 16.4962 183.524 16.4962Z" fill="white"/>
<path fill-rule="evenodd" clip-rule="evenodd" d="M133.609 16.4962H144.995C145.96 16.4962 146.732 17.7193 146.732 19.2481C146.732 20.7769 145.96 22 144.995 22H133.609C132.644 22 131.872 20.7769 131.872 19.2481C131.872 17.7193 132.644 16.4962 133.609 16.4962Z" fill="white"/>
<path fill-rule="evenodd" clip-rule="evenodd" d="M205.414 48.7173V4.48486C205.414 1.98114 203.433 -0.000976562 200.93 -0.000976562H192.484C189.981 -0.000976562 188 1.98114 188 4.48486V48.7173C188 51.221 189.981 53.2031 192.484 53.2031H200.93C203.329 53.2031 205.414 51.221 205.414 48.7173Z" fill="#747F81"/>
<path fill-rule="evenodd" clip-rule="evenodd" d="M203.642 48.7175C203.642 50.2823 202.39 51.5342 200.826 51.5342H192.38C190.816 51.5342 189.564 50.2823 189.564 48.7175V4.48506C189.564 2.92023 190.816 1.66837 192.38 1.66837H200.826C202.39 1.66837 203.642 2.92023 203.642 4.48506V48.7175Z" fill="#455456"/>
<path fill-rule="evenodd" clip-rule="evenodd" d="M202.077 38.8068V16.6906C202.077 15.6474 201.452 14.8128 200.618 14.8128H196.134C195.299 14.8128 194.674 15.6474 194.674 16.6906V38.8068C194.674 39.85 195.299 40.6846 196.134 40.6846H200.618C201.452 40.6846 202.077 39.85 202.077 38.8068Z" fill="#747F81"/>
<path fill-rule="evenodd" clip-rule="evenodd" d="M192.797 5.84108V50.2821C192.797 50.6994 192.901 51.1167 193.006 51.4297H192.38C190.816 51.4297 189.564 50.1778 189.564 48.613V4.17193C189.564 2.6071 190.816 1.35524 192.38 1.35524H200.826C201.973 1.35524 202.912 1.98117 203.329 2.92007H195.508C194.048 3.12871 192.797 4.38057 192.797 5.84108Z" fill="#455456"/>
<path fill-rule="evenodd" clip-rule="evenodd" d="M202.077 44.336V48.4046C202.077 49.1348 201.452 49.7607 200.722 49.7607H196.029C195.3 49.7607 194.674 49.1348 194.674 48.4046V44.336C194.674 43.6058 195.3 42.9798 196.029 42.9798H200.722C201.452 42.8755 202.077 43.5014 202.077 44.336Z" fill="#747F81"/>
<path fill-rule="evenodd" clip-rule="evenodd" d="M200.931 46.1084V47.8819C200.931 48.1948 200.618 48.5078 200.305 48.5078H198.219C197.907 48.5078 197.594 48.1948 197.594 47.8819V46.0041C197.594 45.6911 197.907 45.3782 198.219 45.3782H200.305C200.722 45.4825 200.931 45.6911 200.931 46.1084Z" fill="#919898"/>
<path fill-rule="evenodd" clip-rule="evenodd" d="M200.93 31.6095V38.8077C200.93 39.2249 200.617 39.4336 200.304 39.4336H198.323C197.906 39.4336 197.697 39.1206 197.697 38.8077V31.6095C197.697 31.1922 198.01 30.9835 198.323 30.9835H200.304C200.617 30.8792 200.93 31.1922 200.93 31.6095Z" fill="#24FF00"/>
<path fill-rule="evenodd" clip-rule="evenodd" d="M200.931 27.4357V29.3135C200.931 29.6265 200.618 29.9395 200.305 29.9395H198.219C197.907 29.9395 197.594 29.6265 197.594 29.3135V27.4357C197.594 27.1228 197.907 26.8098 198.219 26.8098H200.305C200.722 26.8098 200.931 27.1228 200.931 27.4357Z" fill="#24FF00"/>
</svg>
