<svg width="161" height="50" viewBox="0 0 161 50" fill="none" xmlns="http://www.w3.org/2000/svg">
<path d="M48.6681 17.6667V18.1667H48.8852L49.0334 18.0081L48.6681 17.6667ZM62.3774 3V2.5H62.1604L62.0122 2.65857L62.3774 3ZM96.6507 3L97.016 2.65857L96.8678 2.5H96.6507V3ZM110.36 17.6667L109.995 18.0081L110.143 18.1667H110.36V17.6667ZM155.333 17.6667C155.333 19.1394 156.527 20.3333 158 20.3333C159.473 20.3333 160.667 19.1394 160.667 17.6667C160.667 16.1939 159.473 15 158 15C156.527 15 155.333 16.1939 155.333 17.6667ZM155.333 3C155.333 4.47276 156.527 5.66667 158 5.66667C159.473 5.66667 160.667 4.47276 160.667 3C160.667 1.52724 159.473 0.333333 158 0.333333C156.527 0.333333 155.333 1.52724 155.333 3ZM46.0014 3C46.0014 4.47276 47.1954 5.66667 48.6681 5.66667C50.1409 5.66667 51.3348 4.47276 51.3348 3C51.3348 1.52724 50.1409 0.333333 48.6681 0.333333C47.1954 0.333333 46.0014 1.52724 46.0014 3ZM48.6681 32.3333L49.0334 31.9919L48.8852 31.8333H48.6681V32.3333ZM62.3774 47L62.0122 47.3414L62.1604 47.5H62.3774V47ZM110.36 32.3333V31.8333H110.143L109.995 31.9919L110.36 32.3333ZM155.333 32.3333C155.333 33.8061 156.527 35 158 35C159.473 35 160.667 33.8061 160.667 32.3333C160.667 30.8606 159.473 29.6667 158 29.6667C156.527 29.6667 155.333 30.8606 155.333 32.3333ZM46.0014 47C46.0014 48.4728 47.1954 49.6667 48.6681 49.6667C50.1409 49.6667 51.3348 48.4728 51.3348 47C51.3348 45.5272 50.1409 44.3333 48.6681 44.3333C47.1954 44.3333 46.0014 45.5272 46.0014 47ZM155.333 47C155.333 48.4728 156.527 49.6667 158 49.6667C159.473 49.6667 160.667 48.4728 160.667 47C160.667 45.5272 159.473 44.3333 158 44.3333C156.527 44.3333 155.333 45.5272 155.333 47ZM0 18.1667H48.6681V17.1667H0V18.1667ZM49.0334 18.0081L62.7427 3.34143L62.0122 2.65857L48.3028 17.3252L49.0334 18.0081ZM96.2855 3.34143L109.995 18.0081L110.725 17.3252L97.016 2.65857L96.2855 3.34143ZM110.36 18.1667H158V17.1667H110.36V18.1667ZM62.3774 3.5H79.5141V2.5H62.3774V3.5ZM79.5141 3.5H96.6507V2.5H79.5141V3.5ZM79.5141 3.5H158V2.5H79.5141V3.5ZM0 3.5H48.6681V2.5H0V3.5ZM0 32.8333H48.6681V31.8333H0V32.8333ZM48.3028 32.6748L62.0122 47.3414L62.7427 46.6586L49.0334 31.9919L48.3028 32.6748ZM62.3774 47.5H96.6507V46.5H62.3774V47.5ZM97.016 47.3414L110.725 32.6748L109.995 31.9919L96.2855 46.6586L97.016 47.3414ZM110.36 32.8333H158V31.8333H110.36V32.8333ZM0 47.5H48.6681V46.5H0V47.5ZM96.6507 47.5H110.36V46.5H96.6507V47.5ZM110.36 47.5H158V46.5H110.36V47.5Z" fill="black"/>
</svg>
